<svg width="29" height="25" viewBox="0 0 29 25" fill="none" xmlns="http://www.w3.org/2000/svg">
<path d="M14.8347 24.9375H2.05502C0.920479 24.9375 0 24.0198 0 22.8886V2.11141C0 0.980239 0.920479 0.0625 2.05502 0.0625H14.8347C26.9615 0.0625 28.7703 7.84194 28.7703 12.4733C28.7703 20.5089 23.8147 24.9375 14.8347 24.9375ZM2.05502 0.745469C1.29509 0.745469 0.685007 1.35374 0.685007 2.11141V22.8886C0.685007 23.6463 1.29509 24.2545 2.05502 24.2545H14.8347C23.3759 24.2545 28.0853 20.0713 28.0853 12.4733C28.0853 2.27148 19.7796 0.745469 14.8347 0.745469H2.05502Z" fill="#8B8E8A"/>
<path fill-rule="evenodd" clip-rule="evenodd" d="M7.83459 4.11984V22.2399H15.7443C22.9262 22.2399 26.0408 18.1954 26.0408 12.4755C26.0408 7.00112 22.9262 2.75391 15.7443 2.75391H9.20461C8.44468 2.75391 7.83459 3.37285 7.83459 4.11984ZM10.6175 10.0319C10.8958 10.0319 11.1526 10.0746 11.3988 10.16C11.645 10.2453 11.8483 10.3841 12.0303 10.5548C12.2015 10.7362 12.3407 10.9603 12.4477 11.2164C12.5441 11.4832 12.5976 11.7927 12.5976 12.1555C12.5976 12.4757 12.5548 12.7638 12.4798 13.0306C12.3942 13.2974 12.2765 13.5321 12.1159 13.7242C11.9554 13.9163 11.752 14.0657 11.5058 14.1831C11.2597 14.2898 10.9707 14.3538 10.6389 14.3538H8.76581V10.0212H10.6175V10.0319ZM10.5532 13.5641C10.6924 13.5641 10.8208 13.5428 10.96 13.5001C11.0884 13.4574 11.2061 13.3827 11.3025 13.276C11.3988 13.1693 11.4844 13.0412 11.5486 12.8705C11.6129 12.6998 11.645 12.5077 11.645 12.2622C11.645 12.0488 11.6236 11.846 11.5808 11.6753C11.5379 11.5046 11.463 11.3445 11.3667 11.2271C11.2704 11.1097 11.1419 11.003 10.9814 10.939C10.8208 10.875 10.6282 10.8429 10.3927 10.8429H9.70769V13.5748H10.5532V13.5641ZM16.4615 10.8323V10.0319V10.0212H13.2184V14.3538H16.515V13.5535H14.171V12.497H16.2796V11.7607H14.171V10.8323H16.4615ZM19.7366 10.0306L21.3635 14.3632H20.3681L20.0363 13.4028H18.4094L18.0669 14.3632H17.1036L18.7412 10.0306H19.7366ZM19.7901 12.6878L19.2442 11.0977H19.2335L18.6663 12.6878H19.7901ZM22.9155 13.5628V10.0306H21.9629V14.3632H25.0347V13.5628H22.9155Z" fill="#8B8E8A"/>
<path d="M4.25987 14.1932C5.36527 14.1932 6.26138 13.2998 6.26138 12.1977C6.26138 11.0956 5.36527 10.2021 4.25987 10.2021C3.15447 10.2021 2.25836 11.0956 2.25836 12.1977C2.25836 13.2998 3.15447 14.1932 4.25987 14.1932Z" fill="#8B8E8A"/>
<path d="M5.76901 22.2394C4.0886 22.2394 2.73999 20.8842 2.73999 19.2194V16.861C2.73999 16.0287 3.41429 15.3457 4.25985 15.3457C5.0947 15.3457 5.77971 16.018 5.77971 16.861V22.2394H5.76901Z" fill="#8B8E8A"/>
</svg>
