<svg width="56" height="13" viewBox="0 0 56 13" fill="none" xmlns="http://www.w3.org/2000/svg">
<g clip-path="url(#clip0_1289_12300)">
<path d="M10.4252 0.5H7.71713C7.71713 2.67211 6.69703 4.6543 4.92402 5.95994L3.85535 6.74332L8.00858 12.2745H11.421L7.59569 7.18249C9.40514 5.42582 10.4252 3.05193 10.4252 0.5Z" fill="#8B8E8A"/>
<path d="M3.51528 0.5H0.74646V12.2745H3.51528V0.5Z" fill="#8B8E8A"/>
<path d="M14.8335 0.5H12.2225V12.2745H14.8335V0.5Z" fill="#8B8E8A"/>
<path d="M37.7369 3.90674C36.7411 3.90674 35.7939 4.20347 35.1624 5.0462V4.13226H32.6851V12.2747H35.1989V8.00169C35.1989 6.76727 36.0489 6.16193 37.069 6.16193C38.162 6.16193 38.7935 6.80288 38.7935 7.98982V12.2866H41.283V7.09962C41.283 5.20051 39.7407 3.90674 37.7369 3.90674Z" fill="#8B8E8A"/>
<path d="M22.727 4.13226V4.65451C22.0226 4.17974 21.1726 3.90674 20.2496 3.90674C17.8208 3.90674 15.8535 5.82959 15.8535 8.20347C15.8535 10.5774 17.8208 12.5002 20.2496 12.5002C21.1726 12.5002 22.0226 12.2272 22.727 11.7524V12.2747H25.2165V4.13226H22.727ZM20.4561 10.2925C19.2052 10.2925 18.1973 9.35481 18.1973 8.20347C18.1973 7.05214 19.2052 6.11445 20.4561 6.11445C21.7069 6.11445 22.7149 7.05214 22.7149 8.20347C22.7149 9.35481 21.7069 10.2925 20.4561 10.2925Z" fill="#8B8E8A"/>
<path d="M29.0783 5.18822V4.13184H26.5281V12.2743H29.0905V8.47605C29.0905 7.19415 30.5113 6.50572 31.495 6.50572C31.5071 6.50572 31.5192 6.50572 31.5192 6.50572V4.13184C30.5113 4.13184 29.5762 4.55914 29.0783 5.18822Z" fill="#8B8E8A"/>
<path d="M49.0308 4.13226V4.65451C48.3265 4.17974 47.4764 3.90674 46.5535 3.90674C44.1247 3.90674 42.1573 5.82959 42.1573 8.20347C42.1573 10.5774 44.1247 12.5002 46.5535 12.5002C47.4764 12.5002 48.3265 12.2272 49.0308 11.7524V12.2747H51.5203V4.13226H49.0308ZM46.7599 10.2925C45.5091 10.2925 44.5011 9.35481 44.5011 8.20347C44.5011 7.05214 45.5091 6.11445 46.7599 6.11445C48.0107 6.11445 49.0187 7.05214 49.0187 8.20347C49.0308 9.35481 48.0107 10.2925 46.7599 10.2925Z" fill="#8B8E8A"/>
<path d="M53.4513 4.3696C53.4513 4.2509 53.3663 4.17969 53.2327 4.17969H53.002V4.7969H53.1113V4.57138H53.2327L53.3298 4.7969H53.4513L53.342 4.54764C53.4149 4.51203 53.4513 4.45268 53.4513 4.3696ZM53.2327 4.46455H53.1113V4.27464H53.2327C53.3056 4.27464 53.342 4.31025 53.342 4.3696C53.342 4.42895 53.3177 4.46455 53.2327 4.46455Z" fill="#8B8E8A"/>
<path d="M53.1962 3.91846C52.8684 3.91846 52.6012 4.17958 52.6012 4.50006C52.6133 4.82053 52.8684 5.08166 53.1962 5.08166C53.5241 5.08166 53.7913 4.82053 53.7913 4.50006C53.7913 4.17958 53.5241 3.91846 53.1962 3.91846ZM53.1962 4.97484C52.9291 4.97484 52.7226 4.76119 52.7226 4.50006C52.7226 4.23893 52.9412 4.02528 53.1962 4.02528C53.4634 4.02528 53.6699 4.23893 53.6699 4.50006C53.6699 4.76119 53.4513 4.97484 53.1962 4.97484Z" fill="#8B8E8A"/>
<path d="M54.1799 9.39014C53.3176 9.39014 52.6133 10.0786 52.6133 10.9213C52.6133 11.764 53.3176 12.4524 54.1799 12.4524C55.0421 12.4524 55.7464 11.764 55.7464 10.9213C55.7464 10.0667 55.0421 9.39014 54.1799 9.39014Z" fill="#8B8E8A"/>
</g>
<defs>
<clipPath id="clip0_1289_12300">
<rect width="55" height="12" fill="white" transform="translate(0.74646 0.5)"/>
</clipPath>
</defs>
</svg>
