<svg width="18" height="21" viewBox="0 0 18 21" fill="none" xmlns="http://www.w3.org/2000/svg">
<path d="M0.5 20.3973C0.5 20.6734 0.723858 20.8973 1 20.8973C1.27614 20.8973 1.5 20.6734 1.5 20.3973H0.5ZM7.41667 9.72364V9.22364V9.72364ZM17 20.3973C17 20.6734 17.2239 20.8973 17.5 20.8973C17.7761 20.8973 18 20.6734 18 20.3973H17ZM10.625 9.72364L10.5694 10.2205L10.5952 10.2234L10.6213 10.2236L10.625 9.72364ZM1 20C0.723858 20 0.5 20.2239 0.5 20.5C0.5 20.7761 0.723858 21 1 21V20ZM17.5 21C17.7761 21 18 20.7761 18 20.5C18 20.2239 17.7761 20 17.5 20V21ZM1.5 20.3973C1.5 15.1642 3.06856 12.6561 4.52806 11.4423C5.26606 10.8285 6.00112 10.5238 6.54764 10.3722C6.82102 10.2964 7.04645 10.2592 7.19994 10.241C7.27661 10.2319 7.33508 10.2275 7.37229 10.2255C7.39088 10.2244 7.40414 10.224 7.41167 10.2238C7.41543 10.2237 7.41777 10.2236 7.41862 10.2236C7.41904 10.2236 7.4191 10.2236 7.41877 10.2236C7.41861 10.2236 7.41835 10.2236 7.418 10.2236C7.41783 10.2236 7.41749 10.2236 7.41741 10.2236C7.41705 10.2236 7.41667 10.2236 7.41667 9.72364C7.41667 9.22364 7.41623 9.22364 7.41578 9.22364C7.41559 9.22364 7.41511 9.22364 7.41474 9.22364C7.414 9.22364 7.41316 9.22365 7.41222 9.22365C7.41035 9.22367 7.40807 9.22369 7.40542 9.22372C7.4001 9.22379 7.39323 9.22392 7.38485 9.22414C7.3681 9.22459 7.34532 9.22544 7.31692 9.22701C7.26014 9.23016 7.18074 9.23624 7.08196 9.24798C6.88454 9.27143 6.60867 9.3176 6.28048 9.40859C5.62388 9.59062 4.75478 9.95302 3.88861 10.6734C2.13977 12.128 0.5 14.9567 0.5 20.3973H1.5ZM7.41667 10.2236C7.45905 10.2236 7.51292 10.2213 7.57038 10.2105C7.62154 10.2009 7.718 10.1772 7.81283 10.1068C7.92691 10.0222 8.01593 9.88483 8.02678 9.71448C8.03584 9.5724 7.98627 9.46429 7.95818 9.41254C7.90329 9.31144 7.8234 9.23471 7.78074 9.19513C7.72736 9.14561 7.66475 9.0944 7.60173 9.04484C7.33395 8.83427 6.97862 8.58658 6.56907 8.23558C5.74523 7.52951 4.97368 6.62083 4.97368 5.56708H3.97368C3.97368 7.09963 5.07165 8.26923 5.91832 8.99487C6.34402 9.35972 6.77419 9.66624 6.98359 9.83091C7.03987 9.87516 7.07728 9.90658 7.10062 9.92823C7.13467 9.95982 7.10819 9.9428 7.07935 9.88969C7.06428 9.86194 7.02091 9.77489 7.02881 9.6509C7.03851 9.49865 7.11904 9.37645 7.21677 9.3039C7.29526 9.24564 7.36753 9.2311 7.38615 9.22761C7.41107 9.22294 7.42404 9.22364 7.41667 9.22364V10.2236ZM4.97368 5.56708C4.97368 4.95542 5.17035 3.92342 5.80052 3.05838C6.41141 2.21979 7.45487 1.5 9.25 1.5V0.5C7.13723 0.5 5.79254 1.37099 4.99225 2.46957C4.21123 3.54168 3.97368 4.79322 3.97368 5.56708H4.97368ZM18 20.3973C18 14.9694 16.2369 12.139 14.37 10.6828C13.447 9.96286 12.5228 9.59861 11.8273 9.41431C11.4794 9.32212 11.1873 9.27458 10.9789 9.25002C10.8747 9.23774 10.7911 9.23118 10.7316 9.22767C10.7019 9.22592 10.6782 9.22493 10.6609 9.22437C10.6523 9.22409 10.6452 9.22392 10.6398 9.22381C10.6372 9.22376 10.6349 9.22372 10.633 9.2237C10.6321 9.22369 10.6313 9.22368 10.6306 9.22367C10.6302 9.22367 10.6297 9.22366 10.6296 9.22366C10.6291 9.22365 10.6287 9.22365 10.625 9.72364C10.6213 10.2236 10.6209 10.2236 10.6206 10.2236C10.6205 10.2236 10.6202 10.2236 10.6201 10.2236C10.6198 10.2236 10.6196 10.2236 10.6195 10.2236C10.6193 10.2236 10.6195 10.2236 10.6201 10.2236C10.6214 10.2236 10.6242 10.2237 10.6285 10.2238C10.6373 10.2241 10.6522 10.2247 10.6728 10.2259C10.714 10.2284 10.7782 10.2333 10.8619 10.2432C11.0295 10.2629 11.2745 10.3024 11.5712 10.3809C12.1647 10.5382 12.9593 10.8507 13.755 11.4713C15.3256 12.6964 17 15.2028 17 20.3973H18ZM10.6806 9.22674C10.6883 9.2276 10.7834 9.23562 10.884 9.30706C10.9437 9.3495 11.0129 9.42003 11.054 9.52556C11.0953 9.63135 11.0921 9.73083 11.0762 9.80387C11.0495 9.9265 10.9827 9.99778 10.9769 10.0043C10.9602 10.0231 10.9493 10.0311 10.9548 10.0267C10.9862 10.0012 11.0667 9.94876 11.2274 9.84866C11.5215 9.66552 11.9818 9.38389 12.4582 9.01828C13.3823 8.30904 14.5263 7.16461 14.5263 5.6184H13.5263C13.5263 6.65848 12.7405 7.54101 11.8494 8.225C11.4181 8.55599 10.9995 8.81253 10.6988 8.99983C10.5621 9.08495 10.4163 9.1758 10.3243 9.25048C10.299 9.27108 10.2637 9.3015 10.2295 9.33988C10.2063 9.36607 10.1289 9.45428 10.0991 9.59111C10.0817 9.67125 10.0788 9.77715 10.1223 9.88868C10.1657 9.99993 10.239 10.0755 10.3049 10.1223C10.4177 10.2025 10.5331 10.2165 10.5694 10.2205L10.6806 9.22674ZM14.5263 5.6184C14.5263 4.84517 14.2891 3.58199 13.5096 2.49775C12.7107 1.38664 11.3661 0.5 9.25 0.5V1.5C11.0418 1.5 12.0853 2.2298 12.6976 3.0815C13.3293 3.96008 13.5263 5.0061 13.5263 5.6184H14.5263ZM1 21H17.5V20H1V21Z" fill="#F1F0EC"/>
</svg>
