<svg width="18" height="23" viewBox="0 0 18 23" fill="none" xmlns="http://www.w3.org/2000/svg">
<path d="M1 22.5L2.6 6.5H15.4L17 22.5H1Z" stroke="#F1F0EC" stroke-linejoin="round"/>
<path d="M1 18.5H17" stroke="#F1F0EC"/>
<path d="M5.51663 7.02584C5.5309 7.30161 5.76603 7.5136 6.04181 7.49933C6.31758 7.48506 6.52957 7.24993 6.5153 6.97416L5.51663 7.02584ZM10.4847 6.97416C10.4704 7.24993 10.6824 7.48506 10.9582 7.49933C11.234 7.51361 11.4691 7.30162 11.4834 7.02584L10.4847 6.97416ZM6.5153 6.97416C6.46519 6.00587 6.5275 4.56535 6.86184 3.38642C7.02931 2.79588 7.25437 2.30996 7.53493 1.98032C7.80375 1.66447 8.11342 1.5 8.50002 1.5V0.5C7.76879 0.5 7.19611 0.835529 6.77341 1.33218C6.36244 1.81504 6.0868 2.45412 5.89978 3.11358C5.52513 4.43465 5.46324 5.99413 5.51663 7.02584L6.5153 6.97416ZM8.50002 1.5C8.88662 1.5 9.19629 1.66447 9.46511 1.98032C9.74567 2.30996 9.97071 2.79588 10.1382 3.38642C10.4725 4.56534 10.5348 6.00587 10.4847 6.97416L11.4834 7.02584C11.5368 5.99414 11.4749 4.43466 11.1002 3.11358C10.9132 2.45412 10.6376 1.81504 10.2266 1.33218C9.80393 0.835529 9.23125 0.5 8.50002 0.5V1.5Z" fill="#F1F0EC"/>
</svg>
