<svg width="37" height="36" viewBox="0 0 37 36" fill="none" xmlns="http://www.w3.org/2000/svg">
<path d="M8 26.5L9.6 10.5H22.4L24 26.5H8Z" stroke="#303A32" stroke-linejoin="round"/>
<path d="M8 22.5H24" stroke="#303A32"/>
<path d="M12.5166 11.0258C12.5309 11.3016 12.766 11.5136 13.0418 11.4993C13.3176 11.4851 13.5296 11.2499 13.5153 10.9742L12.5166 11.0258ZM17.4847 10.9742C17.4704 11.2499 17.6824 11.4851 17.9582 11.4993C18.234 11.5136 18.4691 11.3016 18.4834 11.0258L17.4847 10.9742ZM13.5153 10.9742C13.4652 10.0059 13.5275 8.56535 13.8618 7.38642C14.0293 6.79588 14.2544 6.30996 14.5349 5.98032C14.8037 5.66447 15.1134 5.5 15.5 5.5V4.5C14.7688 4.5 14.1961 4.83553 13.7734 5.33218C13.3624 5.81504 13.0868 6.45412 12.8998 7.11358C12.5251 8.43465 12.4632 9.99413 12.5166 11.0258L13.5153 10.9742ZM15.5 5.5C15.8866 5.5 16.1963 5.66447 16.4651 5.98032C16.7457 6.30996 16.9707 6.79588 17.1382 7.38642C17.4725 8.56534 17.5348 10.0059 17.4847 10.9742L18.4834 11.0258C18.5368 9.99413 18.4749 8.43466 18.1002 7.11358C17.9132 6.45412 17.6376 5.81504 17.2266 5.33218C16.8039 4.83553 16.2312 4.5 15.5 4.5V5.5Z" fill="#303A32"/>
</svg>
