<svg width="19" height="19" viewBox="0 0 19 19" fill="none" xmlns="http://www.w3.org/2000/svg">
<ellipse cx="9.5" cy="9.04715" rx="7.5" ry="7.14286" stroke="#A5A098"/>
<path fill-rule="evenodd" clip-rule="evenodd" d="M12.2632 2.29821C11.7859 2.44736 11.7859 2.44724 11.7858 2.44714L11.7859 2.44738L11.7866 2.44968L11.7901 2.46109C11.7933 2.4717 11.7983 2.48828 11.8048 2.51066C11.8178 2.55542 11.8371 2.62337 11.8612 2.71318C11.9095 2.8928 11.977 3.15972 12.0523 3.50318C12.1248 3.83368 12.2044 4.23474 12.281 4.69684C10.2137 4.48615 8.3275 4.54606 6.78572 4.70024L6.71083 4.70783C6.83795 3.96312 7.00459 3.20187 7.21859 2.43146L6.25507 2.16381C6.00325 3.07038 5.81441 3.96396 5.67672 4.83357C4.91608 4.94062 4.27449 5.06355 3.78018 5.17195C3.42051 5.25082 3.1385 5.32208 2.94498 5.37406C2.84821 5.40005 2.77353 5.42123 2.72231 5.43614C2.69669 5.4436 2.67694 5.44949 2.66321 5.45364L2.64716 5.45852L2.64257 5.45994L2.64114 5.46039L2.64064 5.46054C2.64045 5.4606 2.64028 5.46065 2.78942 5.93789C2.93856 6.41513 2.93844 6.41517 2.93835 6.4152L2.93858 6.41513L2.94089 6.41441L2.9523 6.41094C2.96291 6.40774 2.97948 6.40279 3.00186 6.39627C3.04662 6.38324 3.11458 6.36395 3.20438 6.33983C3.38401 6.29158 3.65093 6.22406 3.99439 6.14874C4.40512 6.05866 4.92486 5.95754 5.53528 5.86488C5.42843 6.78397 5.376 7.6698 5.36295 8.50845H2V9.50845H5.36558C5.38206 10.3035 5.43155 11.0461 5.49918 11.7224C5.51728 11.9034 5.53669 12.0797 5.55712 12.2511C4.69922 12.1181 3.81746 11.9335 2.92335 11.6852L2.65571 12.6487C3.69296 12.9368 4.7132 13.1425 5.7 13.2834C5.78929 13.8486 5.88468 14.3348 5.97089 14.7279C6.04976 15.0876 6.12102 15.3696 6.17299 15.5631C6.19899 15.6599 6.22017 15.7346 6.23508 15.7858C6.24254 15.8114 6.24843 15.8312 6.25258 15.8449L6.25746 15.8609L6.25888 15.8655L6.25933 15.867L6.25948 15.8675C6.25954 15.8677 6.25959 15.8678 6.73683 15.7187C7.21407 15.5695 7.21411 15.5697 7.21414 15.5698L7.21407 15.5695L7.21335 15.5672L7.20988 15.5558C7.20668 15.5452 7.20173 15.5286 7.19521 15.5062C7.18218 15.4615 7.16288 15.3935 7.13876 15.3037C7.09052 15.1241 7.023 14.8572 6.94767 14.5137C6.87991 14.2047 6.8059 13.8341 6.73394 13.4095C8.79539 13.6184 10.6762 13.5584 12.2143 13.4046C12.2342 13.4026 12.254 13.4006 12.2737 13.3985C12.1487 14.1147 11.9869 14.8459 11.7814 15.5854L12.745 15.8531C12.9881 14.9777 13.1725 14.1145 13.3089 13.2732C14.0758 13.1657 14.7224 13.0419 15.2198 12.9328C15.5795 12.854 15.8615 12.7827 16.055 12.7307C16.1518 12.7047 16.2265 12.6835 16.2777 12.6686C16.3033 12.6612 16.3231 12.6553 16.3368 12.6511L16.3528 12.6462L16.3574 12.6448L16.3589 12.6444L16.3594 12.6442C16.3596 12.6442 16.3597 12.6441 16.2106 12.1669C16.0614 11.6896 16.0616 11.6896 16.0616 11.6896L16.0614 11.6896L16.0591 11.6904L16.0477 11.6938C16.0371 11.697 16.0205 11.702 15.9981 11.7085C15.9534 11.7215 15.8854 11.7408 15.7956 11.7649C15.616 11.8132 15.3491 11.8807 15.0056 11.956C14.5925 12.0466 14.0692 12.1484 13.4542 12.2415C13.5682 11.2904 13.6236 10.3743 13.6371 9.50845H17V8.50845H13.6344C13.618 7.71339 13.5685 6.97081 13.5008 6.29451C13.4859 6.14487 13.47 5.99843 13.4534 5.85532C14.308 5.98823 15.1862 6.1723 16.0766 6.41965L16.3443 5.45613C15.312 5.16937 14.2965 4.96429 13.314 4.8234C13.2208 4.21975 13.1198 3.70276 13.0291 3.28897C12.9502 2.9293 12.879 2.64729 12.827 2.45377C12.801 2.357 12.7798 2.28232 12.7649 2.2311C12.7574 2.20548 12.7515 2.18573 12.7474 2.172L12.7425 2.15595L12.7411 2.15136L12.7407 2.14993L12.7405 2.14943C12.7404 2.14924 12.7404 2.14907 12.2632 2.29821ZM12.4295 12.3762C12.5599 11.3771 12.6223 10.4149 12.6369 9.50845H6.36581C6.38209 10.2663 6.42946 10.9754 6.49422 11.6229C6.52079 11.8887 6.55028 12.1439 6.58171 12.3876C8.66117 12.62 10.5645 12.5645 12.1148 12.4095C12.2214 12.3989 12.3264 12.3877 12.4295 12.3762ZM6.88523 5.69528C8.4383 5.53997 10.3458 5.48464 12.4296 5.71845C12.4568 5.93508 12.4824 6.16048 12.5058 6.39402C12.5705 7.04153 12.6179 7.75064 12.6342 8.50845H6.36307C6.37727 7.62904 6.43646 6.69708 6.55902 5.72989C6.66589 5.7179 6.77464 5.70633 6.88523 5.69528Z" fill="#A5A098"/>
</svg>
