<svg width="141" height="57" viewBox="0 0 141 57" fill="none" xmlns="http://www.w3.org/2000/svg">
<g clip-path="url(#clip0_2301_6807)">
<path d="M59.915 52.7598V56.9604H59.5276V55.9102H57.8356L57.1634 56.9604H56.7019L59.3966 52.7598H59.915V52.7598ZM58.0806 55.5255H59.5248V53.2764L58.0806 55.5255Z" fill="#303A32"/>
<path d="M59.9521 56.9944H59.4935V55.9443H57.8556L57.1834 56.9944H56.6365L56.6707 56.9411L59.3767 52.7236H59.9493V56.9944H59.9521ZM59.5647 56.9242H59.8809V52.7938H59.4166L56.7675 56.9242H57.1435L57.8157 55.8741H59.5619V56.9242H59.5647ZM59.5647 55.5596H58.0208L59.5647 53.1532V55.5596ZM58.149 55.4894H59.4935V53.3975L58.149 55.4894Z" fill="#303A32"/>
<path d="M65.2018 52.7598V56.9604H64.7803L62.6553 53.4589V56.9604H62.2622V52.7598H62.6866L64.8088 56.2612V52.7598H65.2018Z" fill="#303A32"/>
<path d="M65.2388 56.9944H64.7603L64.7489 56.9776L62.6894 53.5857V56.9944H62.2251V52.7236H62.7065L62.7179 52.7405L64.7745 56.1324V52.7236H65.2388V56.9944ZM64.803 56.9242H65.1676V52.7938H64.8457V56.3879L62.6666 52.7938H62.2992V56.9242H62.621V53.3301L64.803 56.9242Z" fill="#303A32"/>
<path d="M70.7621 52.7598L68.0674 56.9604H67.5461V52.7598H67.9392V56.4437L70.3006 52.7598H70.7621V52.7598Z" fill="#303A32"/>
<path d="M68.0874 56.9944H67.512V52.7236H67.9763V56.3205L70.2835 52.7236H70.8304L70.7963 52.777L68.0902 56.9944H68.0874ZM67.5832 56.9242H68.0503L70.6994 52.7938H70.3234L67.9079 56.5648V52.7938H67.586V56.9242H67.5832Z" fill="#303A32"/>
<path d="M75.0234 52.7607V53.1482H73.2403V54.6645H74.6503V55.052H73.2403V56.5795H75.0234V56.967H72.8472V52.7664H75.0234V52.7607V52.7607Z" fill="#303A32"/>
<path d="M75.0605 57.0032H72.813V52.7324H75.0263V52.7605H75.0605V53.1817H73.2773V54.6277H74.6873V55.0854H73.2773V56.5427H75.0605V57.0004V57.0032ZM72.8842 56.933H74.9892V56.6157H73.2061V55.018H74.6161V54.7007H73.2061V53.1143H74.9892V52.8026H72.8842V56.933Z" fill="#303A32"/>
<path d="M80.051 56.9604H79.6124L78.6126 55.0622H77.5928V56.9576H77.1997V52.7598H78.7322C79.0541 52.7598 79.3304 52.8721 79.5582 53.0995C79.7861 53.3242 79.9001 53.5937 79.9001 53.9138C79.9001 54.1777 79.8175 54.4136 79.6551 54.6214C79.4956 54.8236 79.2876 54.9583 79.037 55.0257L80.051 56.9604V56.9604ZM78.7322 54.6747C78.9458 54.6747 79.1281 54.6017 79.2819 54.4529C79.4329 54.3013 79.507 54.1216 79.507 53.911C79.507 53.7004 79.4329 53.5207 79.2819 53.3691C79.131 53.2175 78.9458 53.1444 78.7322 53.1444H77.5928V54.6747H78.7322V54.6747Z" fill="#303A32"/>
<path d="M80.1079 56.9944H79.5895L78.5897 55.0963H77.6269V56.9916H77.1626V52.7236H78.7293C79.0625 52.7236 79.3474 52.8416 79.581 53.0746C79.8145 53.3049 79.9342 53.5885 79.9342 53.9142C79.9342 54.1837 79.8487 54.428 79.6807 54.6442C79.5268 54.8408 79.3274 54.9756 79.0853 55.0486L80.1051 56.9972L80.1079 56.9944ZM79.6322 56.9242H79.9911L78.9828 55.0036L79.0255 54.9924C79.2705 54.925 79.4727 54.793 79.6237 54.5993C79.7804 54.3971 79.8601 54.1669 79.8601 53.9142C79.8601 53.6025 79.7519 53.3442 79.5297 53.1252C79.3104 52.9061 79.0426 52.7966 78.7293 52.7966H77.2338V56.9242H77.5557V55.0289H78.6324L79.6322 56.927V56.9242ZM78.7293 54.7088H77.5557V53.1083H78.7293C78.9543 53.1083 79.148 53.1869 79.3047 53.3442C79.4613 53.5014 79.5411 53.6924 79.5411 53.9114C79.5411 54.1304 79.4613 54.3213 79.3047 54.4786C79.1451 54.633 78.9514 54.7116 78.7293 54.7116V54.7088ZM77.6241 54.6386H78.7293C78.9344 54.6386 79.1081 54.5684 79.2534 54.428C79.3987 54.282 79.467 54.1135 79.467 53.9114C79.467 53.7092 79.3958 53.5379 79.2534 53.3947C79.111 53.2515 78.9344 53.1813 78.7293 53.1813H77.6241V54.6414V54.6386Z" fill="#303A32"/>
<path d="M83.2215 56.9997C82.9452 56.9885 82.6945 56.9155 82.4638 56.7863C82.2018 56.6375 82.0252 56.441 81.9312 56.1939L82.2986 56.0619C82.3613 56.2304 82.4895 56.3652 82.6831 56.4691C82.8541 56.5589 83.0364 56.6094 83.2358 56.6179C83.5377 56.6291 83.7912 56.5533 83.9963 56.3932C84.1786 56.25 84.2755 56.0788 84.284 55.885C84.3011 55.5172 83.9593 55.2392 83.2642 55.0455C82.7629 54.9079 82.404 54.7141 82.1875 54.467C82.0223 54.2789 81.9454 54.0655 81.9568 53.8297C81.9739 53.4309 82.1476 53.1305 82.4724 52.9339C82.7316 52.7767 83.0449 52.7093 83.4124 52.7262C83.8567 52.7458 84.2099 52.8946 84.4748 53.1754L84.1871 53.4394C83.9963 53.2344 83.7314 53.1249 83.3953 53.108C83.1076 53.0968 82.8683 53.1473 82.6775 53.2596C82.4695 53.386 82.3584 53.5826 82.347 53.8437C82.3299 54.2031 82.6718 54.4783 83.3668 54.672C83.8681 54.8096 84.227 55.0033 84.4435 55.2532C84.6087 55.4442 84.6856 55.6576 84.6742 55.8963C84.6572 56.2107 84.5147 56.4747 84.2413 56.6909C83.9792 56.8987 83.6659 56.9997 83.2956 56.9997C83.2728 56.9997 83.2472 56.9997 83.2215 56.9997V56.9997Z" fill="#303A32"/>
<path d="M83.2727 57.0365C83.2585 57.0365 83.2385 57.0365 83.2214 57.0365C82.9451 57.0252 82.6859 56.9522 82.4466 56.8175C82.1789 56.6658 81.9937 56.4609 81.8969 56.2081L81.8855 56.1745L82.3213 56.0172L82.3327 56.0509C82.3925 56.211 82.5122 56.3373 82.7002 56.4384C82.8711 56.5282 83.0448 56.576 83.2385 56.5816C83.5291 56.5956 83.7769 56.5198 83.9763 56.3654C84.15 56.2278 84.2412 56.0678 84.2497 55.8824C84.2668 55.5371 83.9307 55.2675 83.2556 55.0794C82.7514 54.9418 82.384 54.7424 82.1618 54.4897C81.9909 54.296 81.9111 54.0714 81.9225 53.8271C81.9396 53.4171 82.1191 53.1054 82.4552 52.9033C82.7173 52.746 83.0391 52.673 83.4151 52.6899C83.868 52.7095 84.2326 52.864 84.5033 53.1504L84.526 53.1756L84.1871 53.4873L84.1643 53.462C83.982 53.2655 83.7228 53.1588 83.3952 53.1419C83.1189 53.1307 82.8825 53.1813 82.6973 53.288C82.5008 53.4087 82.3954 53.594 82.384 53.8439C82.3669 54.1809 82.703 54.4476 83.3781 54.6357C83.8851 54.7733 84.2526 54.9727 84.4719 55.2282C84.6428 55.4248 84.7226 55.6494 84.7112 55.8965C84.6941 56.2194 84.5431 56.4974 84.264 56.7164C83.9962 56.9298 83.6772 57.0337 83.2955 57.0337C83.2898 57.0337 83.2813 57.0337 83.2727 57.0337V57.0365ZM83.2214 56.9663C83.2385 56.9663 83.2556 56.9663 83.2699 56.9663C83.2756 56.9663 83.2841 56.9663 83.2898 56.9663C83.6601 56.9663 83.962 56.868 84.2184 56.6658C84.4833 56.4552 84.6229 56.2053 84.6371 55.8965C84.6485 55.6662 84.5745 55.4641 84.415 55.2787C84.2042 55.0345 83.8481 54.8435 83.3553 54.7087C82.6432 54.5094 82.2928 54.2202 82.3099 53.8439C82.3213 53.5715 82.4381 53.3638 82.6574 53.2318C82.854 53.1167 83.1018 53.0633 83.3952 53.0746C83.7285 53.0914 83.9934 53.1981 84.1871 53.3918L84.4235 53.1756C84.1671 52.9173 83.8339 52.7825 83.4094 52.7629C83.0505 52.746 82.74 52.8134 82.4894 52.965C82.176 53.156 82.008 53.448 81.9909 53.8327C81.9795 54.0601 82.0536 54.2651 82.2131 54.4448C82.4239 54.6863 82.7828 54.8772 83.2727 55.012C83.9848 55.2114 84.3352 55.5034 84.3181 55.888C84.3096 56.093 84.207 56.2727 84.0162 56.4215C83.8054 56.5872 83.5433 56.6658 83.2328 56.6546C83.0306 56.6462 82.8454 56.5956 82.666 56.503C82.478 56.4019 82.347 56.2699 82.2786 56.1099L81.9767 56.2166C82.0707 56.4412 82.2359 56.6181 82.4808 56.7585C82.7116 56.8877 82.9537 56.955 83.2214 56.9663V56.9663Z" fill="#303A32"/>
<path d="M20.7627 42.2113V12.7285H22.4718V40.6529H31.9572V42.2113H20.7627Z" fill="#303A32"/>
<path d="M42.4254 12.7285H40.7163V42.1692H42.4254V12.7285Z" fill="#303A32"/>
<path d="M51.0989 12.7285H52.5943L56.8243 37.3677L61.0116 12.7285H62.5498L57.5934 42.0849L57.6361 42.2113H55.9698L56.0125 42.0849L51.0989 12.7285Z" fill="#303A32"/>
<path d="M78.6182 12.7285H80.1136L84.3436 37.3677L88.5309 12.7285H90.0691L85.1127 42.0849L85.1554 42.2113H83.4891L83.5318 42.0849L78.6182 12.7285Z" fill="#303A32"/>
<path d="M100.281 12.7285H98.5718V42.1692H100.281V12.7285Z" fill="#303A32"/>
<path d="M118.654 26.0379V27.5962H110.877V40.6108H120.149V42.2113H109.254V12.7285H120.363V14.2869H110.877V26.0379H118.654Z" fill="#303A32"/>
<path d="M70.9843 6.9668H70.4146V47.931H70.9843V6.9668Z" fill="#303A32"/>
<path d="M141.125 55.1721H90.0691V54.6105H140.556V0.561576H0.569697V54.6105H51.3126V55.1721H0V0H141.125V55.1721Z" fill="#303A32"/>
</g>
<defs>
<clipPath id="clip0_2301_6807">
<rect width="141.125" height="57.0365" fill="white"/>
</clipPath>
</defs>
</svg>
