<svg width="158" height="64" viewBox="0 0 158 64" fill="none" xmlns="http://www.w3.org/2000/svg">
<g clip-path="url(#clip0_1289_2472)">
<g clip-path="url(#clip1_1289_2472)">
<path d="M67.1388 59.3909V64.1074H66.7047V62.9282H64.8087L64.0554 64.1074H63.5383L66.5579 59.3909H67.1388ZM65.0832 62.4963H66.7015V59.971L65.0832 62.4963Z" fill="#F1F0EC"/>
<path d="M67.1804 64.1452H66.6665V62.9661H64.8311L64.0778 64.1452H63.465L63.5033 64.0853L66.5356 59.3499H67.1772V64.1452H67.1804ZM66.7463 64.0664H67.1006V59.4287H66.5803L63.6118 64.0664H64.0331L64.7864 62.8873H66.7431V64.0664H66.7463ZM66.7463 62.5341H65.0162L66.7463 59.8323V62.5341ZM65.1599 62.4553H66.6665V60.1066L65.1599 62.4553Z" fill="#F1F0EC"/>
<path d="M73.0631 59.3909V64.1074H72.5907L70.2095 60.1759V64.1074H69.769V59.3909H70.2446L72.6226 63.3223V59.3909H73.0631Z" fill="#F1F0EC"/>
<path d="M73.1046 64.1452H72.5684L72.5556 64.1263L70.2478 60.3178V64.1452H69.7275V59.3499H70.267L70.2797 59.3688L72.5843 63.1773V59.3499H73.1046V64.1452ZM72.6162 64.0664H73.0248V59.4287H72.6641V63.4642L70.2223 59.4287H69.8105V64.0664H70.1712V60.0309L72.6162 64.0664Z" fill="#F1F0EC"/>
<path d="M79.2937 59.3909L76.2742 64.1074H75.6901V59.3909H76.1305V63.5273L78.7766 59.3909H79.2937Z" fill="#F1F0EC"/>
<path d="M76.2965 64.1452H75.6517V59.3499H76.172V63.3885L78.7575 59.3499H79.3703L79.332 59.4098L76.2997 64.1452H76.2965ZM75.7315 64.0664H76.255L79.2235 59.4287H78.8022L76.0954 63.6628V59.4287H75.7347V64.0664H75.7315Z" fill="#F1F0EC"/>
<path d="M84.0688 59.3909V59.826H82.0706V61.5284H83.6506V61.9635H82.0706V63.6786H84.0688V64.1137H81.6301V59.3972H84.0688V59.3909Z" fill="#F1F0EC"/>
<path d="M84.1102 64.1546H81.5918V59.3594H84.0719V59.3909H84.1102V59.8638H82.1121V61.4875H83.6921V62.0013H82.1121V63.6376H84.1102V64.1515V64.1546ZM81.6716 64.0758H84.0304V63.7196H82.0323V61.9257H83.6123V61.5694H82.0323V59.7881H84.0304V59.4382H81.6716V64.0758Z" fill="#F1F0EC"/>
<path d="M89.7026 64.1074H89.211L88.0906 61.9761H86.9479V64.1042H86.5074V59.3909H88.2247C88.5854 59.3909 88.895 59.517 89.1503 59.7724C89.4057 60.0246 89.5334 60.3273 89.5334 60.6867C89.5334 60.983 89.4408 61.2478 89.2589 61.4811C89.0801 61.7081 88.8471 61.8595 88.5662 61.9351L89.7026 64.1074ZM88.2247 61.5411C88.4641 61.5411 88.6684 61.4591 88.8407 61.292C89.0099 61.1217 89.0929 60.92 89.0929 60.6835C89.0929 60.4471 89.0099 60.2453 88.8407 60.075C88.6716 59.9048 88.4641 59.8228 88.2247 59.8228H86.9479V61.5411H88.2247Z" fill="#F1F0EC"/>
<path d="M89.7664 64.1452H89.1855L88.0651 62.014H86.9862V64.142H86.4659V59.3499H88.2215C88.595 59.3499 88.9141 59.4823 89.1759 59.744C89.4376 60.0025 89.5717 60.3209 89.5717 60.6867C89.5717 60.9893 89.4759 61.2636 89.2876 61.5064C89.1152 61.7271 88.8918 61.8784 88.6205 61.9604L89.7632 64.1483L89.7664 64.1452ZM89.2333 64.0664H89.6355L88.5056 61.9099L88.5535 61.8973C88.828 61.8216 89.0546 61.6735 89.2238 61.4559C89.3993 61.2289 89.4887 60.9704 89.4887 60.6867C89.4887 60.3367 89.3674 60.0467 89.1184 59.8007C88.8727 59.5548 88.5726 59.4319 88.2215 59.4319H86.5457V64.0664H86.9064V61.9383H88.113L89.2333 64.0695V64.0664ZM88.2215 61.5789H86.9064V59.7818H88.2215C88.4737 59.7818 88.6907 59.8701 88.8663 60.0467C89.0418 60.2232 89.1312 60.4376 89.1312 60.6835C89.1312 60.9294 89.0418 61.1438 88.8663 61.3204C88.6875 61.4938 88.4705 61.582 88.2215 61.582V61.5789ZM86.983 61.5001H88.2215C88.4513 61.5001 88.646 61.4212 88.8088 61.2636C88.9716 61.0997 89.0482 60.9105 89.0482 60.6835C89.0482 60.4565 88.9684 60.2642 88.8088 60.1034C88.6492 59.9426 88.4513 59.8638 88.2215 59.8638H86.983V61.5032V61.5001Z" fill="#F1F0EC"/>
<path d="M93.2551 64.1515C92.9455 64.1389 92.6646 64.0569 92.4061 63.9119C92.1124 63.7448 91.9145 63.5241 91.8092 63.2466L92.221 63.0985C92.2912 63.2876 92.4348 63.439 92.6519 63.5556C92.8434 63.6565 93.0477 63.7132 93.2711 63.7227C93.6094 63.7353 93.8935 63.6502 94.1233 63.4705C94.3276 63.3097 94.4362 63.1174 94.4457 62.8998C94.4649 62.4868 94.0818 62.1747 93.303 61.9572C92.7412 61.8027 92.3391 61.5852 92.0965 61.3077C91.9113 61.0965 91.8252 60.8569 91.8379 60.5921C91.8571 60.1444 92.0518 59.807 92.4157 59.5864C92.7061 59.4098 93.0572 59.3341 93.469 59.3531C93.9669 59.3751 94.3627 59.5422 94.6596 59.8575L94.3372 60.1538C94.1233 59.9237 93.8265 59.8007 93.4498 59.7818C93.1275 59.7692 92.8593 59.826 92.6455 59.9521C92.4125 60.0939 92.288 60.3146 92.2752 60.6078C92.2561 61.0114 92.6391 61.3203 93.4179 61.5379C93.9797 61.6924 94.3819 61.9099 94.6245 62.1905C94.8096 62.4049 94.8958 62.6445 94.883 62.9125C94.8639 63.2656 94.7043 63.5619 94.3978 63.8047C94.1042 64.038 93.7531 64.1515 93.3381 64.1515C93.3126 64.1515 93.2839 64.1515 93.2551 64.1515Z" fill="#F1F0EC"/>
<path d="M93.3126 64.1925C93.2967 64.1925 93.2743 64.1925 93.2552 64.1925C92.9456 64.1799 92.6551 64.0979 92.387 63.9466C92.0869 63.7763 91.8795 63.5462 91.7709 63.2624L91.7582 63.2246L92.2465 63.048L92.2593 63.0859C92.3263 63.2656 92.4604 63.4075 92.6711 63.5209C92.8626 63.6218 93.0573 63.6754 93.2743 63.6817C93.5999 63.6975 93.8776 63.6124 94.101 63.439C94.2957 63.2845 94.3979 63.1048 94.4075 62.8967C94.4266 62.5089 94.05 62.2063 93.2935 61.995C92.7285 61.8406 92.3168 61.6167 92.0678 61.333C91.8763 61.1154 91.7869 60.8632 91.7997 60.5889C91.8188 60.1286 92.0199 59.7787 92.3966 59.5517C92.6902 59.3751 93.0509 59.2932 93.4722 59.3121C93.9797 59.3342 94.3883 59.5076 94.6915 59.8291L94.7171 59.8575L94.3372 60.2075L94.3117 60.1791C94.1074 59.9584 93.817 59.8386 93.4499 59.8197C93.1403 59.8071 92.8754 59.8638 92.6679 59.9836C92.4476 60.1192 92.3295 60.3273 92.3168 60.6078C92.2976 60.9862 92.6743 61.2857 93.4307 61.4969C93.9989 61.6514 94.4107 61.8752 94.6564 62.1621C94.8479 62.3828 94.9373 62.635 94.9246 62.9125C94.9054 63.275 94.7362 63.5872 94.4234 63.8331C94.1234 64.0727 93.7659 64.1893 93.3382 64.1893C93.3318 64.1893 93.3222 64.1893 93.3126 64.1893V64.1925ZM93.2552 64.1137C93.2743 64.1137 93.2935 64.1137 93.3094 64.1137C93.3158 64.1137 93.3254 64.1137 93.3318 64.1137C93.7467 64.1137 94.0851 64.0033 94.3724 63.7763C94.6692 63.5399 94.8256 63.2593 94.8416 62.9125C94.8543 62.654 94.7713 62.427 94.5926 62.2189C94.3564 61.9446 93.9574 61.7302 93.4052 61.5789C92.6072 61.355 92.2146 61.0303 92.2338 60.6078C92.2465 60.302 92.3774 60.0687 92.6232 59.9206C92.8434 59.7913 93.1211 59.7314 93.4499 59.744C93.8233 59.7629 94.1202 59.8827 94.3372 60.1003L94.6022 59.8575C94.3149 59.5675 93.9414 59.4161 93.4659 59.3941C93.0637 59.3751 92.7158 59.4508 92.4349 59.6211C92.0838 59.8354 91.8954 60.1633 91.8763 60.5952C91.8635 60.8506 91.9465 61.0808 92.1252 61.2825C92.3614 61.5537 92.7636 61.768 93.3126 61.9194C94.1106 62.1432 94.5032 62.4711 94.4841 62.903C94.4745 63.1332 94.3596 63.3349 94.1457 63.502C93.9095 63.688 93.6159 63.7763 93.268 63.7637C93.0413 63.7543 92.8339 63.6975 92.6328 63.5935C92.4221 63.48 92.2753 63.3318 92.1987 63.1521L91.8603 63.2719C91.9657 63.5241 92.1508 63.7227 92.4253 63.8804C92.6838 64.0254 92.9551 64.101 93.2552 64.1137Z" fill="#F1F0EC"/>
<path d="M23.2659 47.5462V14.4427H25.181V45.7964H35.8101V47.5462H23.2659Z" fill="#F1F0EC"/>
<path d="M47.5404 14.4427H45.6252V47.4989H47.5404V14.4427Z" fill="#F1F0EC"/>
<path d="M57.2599 14.4427H58.9356L63.6756 42.1077L68.3678 14.4427H70.0914L64.5375 47.4043L64.5853 47.5462H62.7181L62.7659 47.4043L57.2599 14.4427Z" fill="#F1F0EC"/>
<path d="M88.0969 14.4427H89.7727L94.5127 42.1077L99.2048 14.4427H100.928L95.3745 47.4043L95.4224 47.5462H93.5551L93.603 47.4043L88.0969 14.4427Z" fill="#F1F0EC"/>
<path d="M112.371 14.4427H110.456V47.4989H112.371V14.4427Z" fill="#F1F0EC"/>
<path d="M132.959 29.3866V31.1363H124.245V45.7491H134.635V47.5462H122.426V14.4427H134.875V16.1925H124.245V29.3866H132.959Z" fill="#F1F0EC"/>
<path d="M79.5427 7.97336H78.9043V53.9682H79.5427V7.97336Z" fill="#F1F0EC"/>
<path d="M158.14 62.0991H100.928V61.4685H157.502V0.782031H0.638384V61.4685H57.4992V62.0991H0V0.151489H158.14V62.0991Z" fill="#F1F0EC"/>
</g>
</g>
<defs>
<clipPath id="clip0_1289_2472">
<rect width="158" height="64" fill="white"/>
</clipPath>
<clipPath id="clip1_1289_2472">
<rect width="158.14" height="64.041" fill="white" transform="translate(0 0.151489)"/>
</clipPath>
</defs>
</svg>
