<svg width="50" height="21" viewBox="0 0 50 21" fill="none" xmlns="http://www.w3.org/2000/svg">
<g clip-path="url(#clip0_582_18377)">
<path fill-rule="evenodd" clip-rule="evenodd" d="M32.1726 16.5734C31.2624 16.8274 30.0771 16.9332 29.0611 16.9332C26.4153 16.9332 24.6797 15.5574 24.6797 13.0386C24.6797 10.6468 26.3095 9.10161 28.6801 9.10161C29.2092 9.10161 29.7807 9.16511 30.1194 9.33445V5.86311H32.1726V16.5734ZM30.1194 11.1124C29.8019 10.9643 29.3574 10.8796 28.8494 10.8796C27.6007 10.8796 26.7752 11.6416 26.7752 12.9751C26.7752 14.3932 27.6642 15.1976 29.1246 15.1976C29.3786 15.1976 29.7807 15.1976 30.1194 15.1129V11.1124ZM49.0424 16.5734C48.1322 16.8274 46.9469 16.9332 45.9097 16.9332C43.2851 16.9332 41.5282 15.5574 41.5282 13.0386C41.5282 10.6468 43.1581 9.10161 45.5287 9.10161C46.0791 9.10161 46.6294 9.16511 46.9681 9.33445V5.86311H49.0424V16.5734ZM46.9681 11.1124C46.6506 10.9643 46.2272 10.8796 45.7192 10.8796C44.4492 10.8796 43.6237 11.6416 43.6237 12.9751C43.6237 14.3932 44.5339 15.1976 45.9944 15.1976C46.2484 15.1976 46.6294 15.1976 46.9681 15.1129V11.1124ZM35.4111 11.1124C35.7497 10.9643 36.2366 10.9219 36.6387 10.9219C37.9087 10.9219 38.7766 11.6416 38.7766 12.9328C38.7766 14.4567 37.8029 15.1552 36.5117 15.1764V16.9332H36.6176C39.2846 16.9332 40.8721 15.4727 40.8721 12.8693C40.8721 10.4986 39.1787 9.10161 36.6811 9.10161C35.4111 9.10161 34.1622 9.39795 33.3367 9.73659V19.7907H35.4111V11.1124Z" fill="#303A32"/>
<path fill-rule="evenodd" clip-rule="evenodd" d="M17.1035 4.21214L17.4422 4.59314L17.6327 4.48731L17.1035 4.21214Z" fill="#303A32"/>
<path fill-rule="evenodd" clip-rule="evenodd" d="M16.5938 3.93697L17.2499 4.69897L17.4827 4.57197L17.2287 4.27563L16.5938 3.93697Z" fill="#303A32"/>
<path fill-rule="evenodd" clip-rule="evenodd" d="M16.0645 3.6618L17.0593 4.8048L17.2921 4.6778L16.7206 4.00047L16.0645 3.6618Z" fill="#303A32"/>
<path fill-rule="evenodd" clip-rule="evenodd" d="M15.5566 3.38664L16.869 4.91064L17.1018 4.78364L16.1916 3.72531L15.5566 3.38664ZM18.0754 6.07478L17.9273 6.15945L18.0754 6.32878V6.07478Z" fill="#303A32"/>
<path fill-rule="evenodd" clip-rule="evenodd" d="M15.0488 3.11147L16.6787 5.01647L16.9115 4.88947L15.6838 3.45013L15.0488 3.11147ZM17.991 6.1171L17.7581 6.26527L18.0756 6.64627V6.2441L17.991 6.1171H17.991Z" fill="#303A32"/>
<path fill-rule="evenodd" clip-rule="evenodd" d="M14.5195 2.8363L16.488 5.1223L16.742 4.9953L15.1757 3.17497L14.5195 2.8363ZM17.8003 6.22294L17.5675 6.37111L18.0755 6.96378V6.56161L17.8003 6.22294Z" fill="#303A32"/>
<path fill-rule="evenodd" clip-rule="evenodd" d="M14.0117 2.56114L16.3189 5.22813L16.5517 5.10113L14.6467 2.8998L14.0117 2.56114ZM17.61 6.34994L17.3772 6.47694L18.0757 7.30244V6.90027L17.61 6.34994Z" fill="#303A32"/>
<path fill-rule="evenodd" clip-rule="evenodd" d="M13.5039 2.28598L16.1286 5.33397L16.3614 5.20697L14.1389 2.62464L13.5039 2.28598ZM17.4197 6.45577L17.1869 6.58277L18.0759 7.61994V7.21777L17.4197 6.45577Z" fill="#303A32"/>
<path fill-rule="evenodd" clip-rule="evenodd" d="M12.9746 2.01082L15.9379 5.4398L16.1707 5.3128L13.6307 2.34948L12.9746 2.01082ZM17.2291 6.56161L16.9962 6.68861L18.0757 7.93744V7.53528L17.2291 6.56161Z" fill="#303A32"/>
<path fill-rule="evenodd" clip-rule="evenodd" d="M12.4668 1.73566L15.7476 5.56681L15.9804 5.41864L13.1018 2.07432L12.4668 1.73566ZM17.0388 6.66745L16.8059 6.79445L18.0759 8.27611V7.87395L17.0388 6.66745Z" fill="#303A32"/>
<path fill-rule="evenodd" clip-rule="evenodd" d="M11.9375 1.46049L15.557 5.67264L15.7898 5.52448L12.5937 1.79916L11.9375 1.46049ZM16.8693 6.77328L16.6153 6.90028L18.0758 8.59362V8.19145L16.8693 6.77328Z" fill="#303A32"/>
<path fill-rule="evenodd" clip-rule="evenodd" d="M11.4297 1.18532L15.3667 5.77844L15.6207 5.6303L12.0859 1.52398L11.4297 1.18532ZM16.679 6.8791L16.4462 7.0061L18.076 8.93227V8.50894L16.679 6.8791Z" fill="#303A32"/>
<path fill-rule="evenodd" clip-rule="evenodd" d="M10.9219 0.910156L15.1975 5.88427L15.4303 5.73611L11.5569 1.24882L10.9219 0.910156ZM16.4887 6.98494L16.2558 7.11194L18.0762 9.24977V8.84761L16.4887 6.98494Z" fill="#303A32"/>
<path fill-rule="evenodd" clip-rule="evenodd" d="M10.3926 0.613831L15.0069 5.99011L15.2397 5.84195L11.0487 0.973661L10.3926 0.613831ZM16.2981 7.09078L16.0652 7.21778L18.076 9.56725V9.16511L16.2981 7.09078Z" fill="#303A32"/>
<path fill-rule="evenodd" clip-rule="evenodd" d="M9.88477 0.338669L14.8166 6.09595L15.0494 5.96895L10.5409 0.698499L9.88477 0.338669ZM16.1077 7.19661L15.8749 7.32362L18.0762 9.90592V9.48261L16.1077 7.19661Z" fill="#303A32"/>
<path fill-rule="evenodd" clip-rule="evenodd" d="M9.37695 0.084671L14.6262 6.20178L14.8591 6.07478L10.0119 0.423335L9.37695 0.084671ZM15.9174 7.30245L15.6846 7.42945L18.0764 10.2234V9.82125L15.9174 7.30245Z" fill="#303A32"/>
<path fill-rule="evenodd" clip-rule="evenodd" d="M9.03906 0L14.4365 6.30761L14.6693 6.18061L9.50473 0.148166L9.37773 0.0846661C9.2719 0.0211665 9.16606 0 9.03906 0ZM15.7277 7.40828L15.4948 7.53528L18.0771 10.5409V10.1387L15.7277 7.40828Z" fill="#303A32"/>
<path fill-rule="evenodd" clip-rule="evenodd" d="M9.0372 0C8.95254 0 8.86787 0.0211665 8.7832 0.0423331L14.2441 6.41344L14.4981 6.28644L9.1007 0C9.07954 0 9.05837 0 9.0372 0ZM15.5565 7.51411L15.3236 7.64111L18.0753 10.8796V10.4562L15.5565 7.51411Z" fill="#303A32"/>
<path fill-rule="evenodd" clip-rule="evenodd" d="M8.84775 0.0211639C8.80542 0.0423305 8.74192 0.0634969 8.72075 0.0846635L8.59375 0.148163L14.0759 6.51927L14.3087 6.39227L8.84775 0.0211639ZM15.367 7.61994L15.1342 7.76811L18.0763 11.1971V10.7949L15.367 7.61994Z" fill="#303A32"/>
<path fill-rule="evenodd" clip-rule="evenodd" d="M8.63518 0.105835L8.40234 0.232834L13.8845 6.62511L14.1173 6.49811L8.63518 0.105835ZM15.1756 7.72578L14.9428 7.87395L18.0754 11.5146V11.1124L15.1756 7.72578Z" fill="#303A32"/>
<path fill-rule="evenodd" clip-rule="evenodd" d="M8.44572 0.21167L8.21289 0.338669L13.695 6.73095L13.9278 6.60395L8.44572 0.21167ZM14.9862 7.83161L14.7533 7.97978L18.0765 11.8533V11.4511L14.9862 7.83161Z" fill="#303A32"/>
<path fill-rule="evenodd" clip-rule="evenodd" d="M8.25432 0.31749L8.02148 0.44449L13.5036 6.83677L13.7364 6.70977L8.25432 0.31749ZM14.7948 7.93744L14.5619 8.0856L18.0756 12.1707V11.7686L14.7948 7.93744Z" fill="#303A32"/>
<path fill-rule="evenodd" clip-rule="evenodd" d="M8.06486 0.423325L7.83203 0.550325L13.3142 6.9426L13.547 6.8156L8.06486 0.423325ZM14.6053 8.04327L14.3725 8.19144L18.0766 12.4882V12.0861L14.6053 8.04327Z" fill="#303A32"/>
<path fill-rule="evenodd" clip-rule="evenodd" d="M7.87346 0.52916L7.64062 0.656157L13.1228 7.04844L13.3556 6.92144L7.87346 0.52916ZM14.4351 8.14911L14.2022 8.29727L18.0757 12.8269V12.4247L14.4351 8.14911Z" fill="#303A32"/>
<path fill-rule="evenodd" clip-rule="evenodd" d="M7.68401 0.613831L7.45117 0.761997L12.9545 7.15428L13.1873 7.02728L7.68401 0.613831ZM14.2456 8.27611L14.0128 8.40311L18.0768 13.1444V12.7423L14.2456 8.27611Z" fill="#303A32"/>
<path fill-rule="evenodd" clip-rule="evenodd" d="M7.4926 0.719666L7.25977 0.846666L12.7631 7.26011L12.9959 7.13311L7.4926 0.719666ZM14.0542 8.38195L13.8214 8.50895L18.0758 13.4831V13.0598L14.0542 8.38195Z" fill="#303A32"/>
<path fill-rule="evenodd" clip-rule="evenodd" d="M7.30315 0.8255L7.07031 0.952501L12.5736 7.38712L12.8065 7.23895L7.30315 0.8255ZM13.8648 8.48778L13.6319 8.61478L18.0769 13.8006V13.3984L13.8648 8.48778Z" fill="#303A32"/>
<path fill-rule="evenodd" clip-rule="evenodd" d="M7.11174 0.93132L6.87891 1.05832L12.3822 7.49294L12.615 7.34477L7.11174 0.93132ZM13.6733 8.5936L13.4405 8.7206L18.076 14.118V13.7159L13.6733 8.5936Z" fill="#303A32"/>
<path fill-rule="evenodd" clip-rule="evenodd" d="M6.92229 1.03716L6.68945 1.16416L12.1928 7.59877L12.4256 7.45061L6.92229 1.03716ZM13.4839 8.69944L13.2511 8.82644L18.077 14.4567V14.0334L13.4839 8.69944Z" fill="#303A32"/>
<path fill-rule="evenodd" clip-rule="evenodd" d="M6.73088 1.14299L6.49805 1.26999L12.0014 7.70461L12.2342 7.55644L6.73088 1.14299ZM13.3137 8.80528L13.0809 8.93228L18.0761 14.7742V14.3721L13.3137 8.80528Z" fill="#303A32"/>
<path fill-rule="evenodd" clip-rule="evenodd" d="M6.54111 1.22766L6.28711 1.35466L11.8327 7.81045L12.0656 7.66228L6.54111 1.22766ZM13.1239 8.91111L12.8911 9.03811L18.0769 15.0917V14.6896L13.1239 8.91111Z" fill="#303A32"/>
<path fill-rule="evenodd" clip-rule="evenodd" d="M6.3497 1.3335L6.0957 1.46049L11.6625 7.93745C11.6837 7.89512 11.7048 7.87395 11.7472 7.85278L11.8742 7.76812L6.34971 1.3335L6.3497 1.3335ZM12.9325 9.01695L12.6997 9.14395L18.0336 15.3669C18.0548 15.3034 18.0759 15.2399 18.0759 15.1764V15.0071L12.9325 9.01695H12.9325Z" fill="#303A32"/>
<path fill-rule="evenodd" clip-rule="evenodd" d="M6.16025 1.43932L5.90625 1.56632L11.6001 8.19144V8.10677C11.6001 8.04327 11.6424 7.9586 11.6847 7.8951L6.16025 1.43932ZM12.7431 9.12277L12.5737 9.2286C12.5526 9.2286 12.5314 9.24977 12.5102 9.24977L17.9288 15.5785C17.9923 15.4939 18.0347 15.4092 18.0558 15.3245L12.7431 9.12277Z" fill="#303A32"/>
<path fill-rule="evenodd" clip-rule="evenodd" d="M5.96882 1.54515L5.71484 1.67215L11.5991 8.53011V8.10677L5.96882 1.54515ZM12.1495 9.14394L17.7797 15.7267C17.8432 15.6844 17.9067 15.5997 17.9702 15.5362L12.5516 9.22861C12.467 9.27094 12.34 9.27094 12.2553 9.22861L12.1495 9.14394Z" fill="#303A32"/>
<path fill-rule="evenodd" clip-rule="evenodd" d="M5.77936 1.65099L5.52539 1.77798L17.5903 15.8326L17.7596 15.7479C17.7808 15.7267 17.8019 15.7056 17.8231 15.6844L12.2775 9.22861H12.2563L11.7695 8.93227C11.7272 8.91111 11.706 8.86877 11.6637 8.82644C11.6213 8.76294 11.6213 8.72061 11.6002 8.67827V8.44544L5.77936 1.65099Z" fill="#303A32"/>
<path fill-rule="evenodd" clip-rule="evenodd" d="M5.58798 1.75682L5.33398 1.88382L17.3989 15.9384L17.6317 15.8114L5.58798 1.75682Z" fill="#303A32"/>
<path fill-rule="evenodd" clip-rule="evenodd" d="M5.39658 1.84149L5.14258 1.96849L17.2286 16.0442L17.4615 15.9172L5.39658 1.84149Z" fill="#303A32"/>
<path fill-rule="evenodd" clip-rule="evenodd" d="M5.20713 1.94733L4.95312 2.07433L17.0392 16.1501L17.272 16.0231L5.20713 1.94733Z" fill="#303A32"/>
<path fill-rule="evenodd" clip-rule="evenodd" d="M5.01572 2.05315L4.76172 2.18014L16.8478 16.2559L17.0806 16.1289L5.01572 2.05315Z" fill="#303A32"/>
<path fill-rule="evenodd" clip-rule="evenodd" d="M4.8051 2.15898L4.57227 2.28598L16.6583 16.3829L16.8912 16.2347L4.8051 2.15898Z" fill="#303A32"/>
<path fill-rule="evenodd" clip-rule="evenodd" d="M4.61369 2.26482L4.38086 2.39182L16.4669 16.4887L16.6998 16.3406L4.61369 2.26482Z" fill="#303A32"/>
<path fill-rule="evenodd" clip-rule="evenodd" d="M4.42424 2.37065L4.19141 2.49765L16.2987 16.5946L16.5315 16.4464L4.42424 2.37065Z" fill="#303A32"/>
<path fill-rule="evenodd" clip-rule="evenodd" d="M4.23283 2.45532L4 2.58232L16.1072 16.7004L16.3401 16.5522L4.23283 2.45532Z" fill="#303A32"/>
<path fill-rule="evenodd" clip-rule="evenodd" d="M4.04338 2.56114L3.81055 2.68814L15.9178 16.8062L16.1506 16.6792L4.04338 2.56114Z" fill="#303A32"/>
<path fill-rule="evenodd" clip-rule="evenodd" d="M3.85197 2.66698L3.61914 2.79398L9.50345 9.65191L9.69392 9.77891C9.77858 9.82125 9.86325 9.92708 9.86325 10.0329V10.0541L15.7264 16.9121L15.9592 16.7851L3.85197 2.66698Z" fill="#303A32"/>
<path fill-rule="evenodd" clip-rule="evenodd" d="M3.66252 2.77281L3.42969 2.8998L8.95416 9.35561L9.65263 9.73658L3.66252 2.77281ZM9.84313 9.96941C9.84313 9.99058 9.8643 10.0117 9.8643 10.0329V10.3927L15.5369 17.0179L15.7698 16.8909L9.84313 9.96941Z" fill="#303A32"/>
<path fill-rule="evenodd" clip-rule="evenodd" d="M3.47111 2.87863L3.23828 3.00563L8.40292 9.0381L9.10142 9.4191L3.47111 2.87863ZM9.86339 10.3081V10.7102L15.3667 17.1237L15.5995 16.9967L9.86339 10.3081Z" fill="#303A32"/>
<path fill-rule="evenodd" clip-rule="evenodd" d="M3.28166 2.98447L3.04883 3.11147L7.8748 8.72061L8.55213 9.1016L3.28166 2.98447ZM9.86444 10.6256V11.0489L15.1772 17.2295L15.4101 17.1025L9.86444 10.6256Z" fill="#303A32"/>
<path fill-rule="evenodd" clip-rule="evenodd" d="M3.09026 3.06914L2.85742 3.19614L7.32356 8.40311L8.00089 8.80528L3.09026 3.06914ZM9.86353 10.9642V11.3664L14.9858 17.3354L15.2187 17.2084L9.86353 10.9642Z" fill="#303A32"/>
<path fill-rule="evenodd" clip-rule="evenodd" d="M2.89884 3.17497L2.66602 3.30197L6.77231 8.08561L7.44965 8.48778L2.89884 3.17497ZM9.86262 11.2817V11.6839L14.7944 17.4412L15.0273 17.3142L9.86262 11.2817Z" fill="#303A32"/>
<path fill-rule="evenodd" clip-rule="evenodd" d="M2.70939 3.28081L2.47656 3.40781L6.22302 7.78928L6.90036 8.17028L2.70939 3.28081ZM9.86366 11.5993V12.0226L14.605 17.5682L14.8378 17.42L9.86366 11.5993Z" fill="#303A32"/>
<path fill-rule="evenodd" clip-rule="evenodd" d="M2.51799 3.38664L2.28516 3.51364L5.67181 7.47178L6.34912 7.85278L2.51799 3.38664ZM9.86276 11.9379V12.3401L14.4347 17.674L14.6676 17.5259L9.86276 11.9379Z" fill="#303A32"/>
<path fill-rule="evenodd" clip-rule="evenodd" d="M2.32853 3.49248L2.0957 3.61948L5.12252 7.15428L5.82099 7.53528L2.32853 3.49248ZM9.8638 12.2554V12.6576L14.2453 17.7799L14.4781 17.6317L9.8638 12.2554Z" fill="#303A32"/>
<path fill-rule="evenodd" clip-rule="evenodd" d="M2.13713 3.59831L1.9043 3.72531L4.57128 6.83678L5.26978 7.23895L2.13713 3.59831ZM7.68275 10.4563L8.23309 11.0913V10.8584C8.23309 10.8161 8.19075 10.7526 8.14842 10.7314L7.68275 10.4563ZM9.86289 12.5729V12.9963L14.0539 17.8857L14.2867 17.7375L9.86289 12.5729Z" fill="#303A32"/>
<path fill-rule="evenodd" clip-rule="evenodd" d="M1.94767 3.68297L1.71484 3.80997L4.02199 6.51927L4.72049 6.92144L1.94767 3.68297ZM7.13347 10.1387L8.23413 11.4087V11.0066L7.83197 10.5409L7.13347 10.1387ZM9.86394 12.9116V13.3137L13.8644 17.9915L14.0972 17.8645L9.86394 12.9116Z" fill="#303A32"/>
<path fill-rule="evenodd" clip-rule="evenodd" d="M1.75627 3.7888L1.52344 3.9158L3.49192 6.22294L4.16925 6.60394L1.75627 3.7888ZM6.58223 9.84241L8.23323 11.7474V11.3452L7.28073 10.2234L6.58223 9.84241ZM9.86303 13.2291V13.6312L13.673 18.0974L13.9058 17.9704L9.86303 13.2291Z" fill="#303A32"/>
<path fill-rule="evenodd" clip-rule="evenodd" d="M1.56681 3.89464L1.33398 4.02164L2.94263 5.90544L3.61996 6.28644L1.56681 3.89464ZM6.0541 9.52494L8.23427 12.0649V11.6627L6.73144 9.90592L6.0541 9.52494ZM9.86407 13.5677V13.9699L13.5047 18.2032L13.7375 18.0762L9.86407 13.5677Z" fill="#303A32"/>
<path fill-rule="evenodd" clip-rule="evenodd" d="M1.37541 4.00047L1.14258 4.12747L2.3914 5.58797L3.06872 5.96895L1.37541 4.00047ZM5.50289 9.20744L8.23336 12.3824V11.9803L6.1802 9.60958L5.50289 9.20744ZM9.86317 13.8852V14.2874L13.3133 18.309L13.5461 18.182L9.86317 13.8852Z" fill="#303A32"/>
<path fill-rule="evenodd" clip-rule="evenodd" d="M1.18596 4.10631L0.953125 4.23331L1.84212 5.27047L2.51944 5.67264L1.18596 4.10631ZM4.9536 8.88995L8.23441 12.7211V12.3189L5.63094 9.29211L4.9536 8.88995ZM9.86421 14.2027V14.6049L13.1239 18.4149L13.3567 18.2879L9.86421 14.2027Z" fill="#303A32"/>
<path fill-rule="evenodd" clip-rule="evenodd" d="M0.994549 4.21214L0.761719 4.33914L1.29088 4.95298L1.98938 5.35514L0.994549 4.21214ZM4.40236 8.59361L8.2335 13.0386V12.6364L5.0797 8.97462L4.40236 8.59361ZM9.86331 14.5414V14.9436L12.9325 18.5207L13.1653 18.3937L9.86331 14.5414Z" fill="#303A32"/>
<path fill-rule="evenodd" clip-rule="evenodd" d="M0.804778 4.2968L0.550781 4.4238L0.741278 4.65663L1.43977 5.03763L0.804778 4.2968ZM3.85276 8.2761L8.23423 13.3772V12.9539L4.55126 8.6571L3.85276 8.2761ZM9.86403 14.8589V15.261L12.7427 18.6477L12.9755 18.4995L9.86403 14.8589Z" fill="#303A32"/>
<path fill-rule="evenodd" clip-rule="evenodd" d="M0.613008 4.40263L0.464844 4.4873L0.888174 4.72013L0.613008 4.40263V4.40263ZM3.30115 7.95861L8.23296 13.6947V13.2926L3.99965 8.36077L3.30115 7.95861ZM9.86276 15.1764V15.5997L12.5721 18.7535L12.8049 18.6054L9.86276 15.1764Z" fill="#303A32"/>
<path fill-rule="evenodd" clip-rule="evenodd" d="M2.77344 7.64111L8.2344 14.0122V13.6101L3.45076 8.04328L2.77344 7.64111ZM9.86421 15.5151V15.9172L12.383 18.8594L12.6159 18.7112L9.86421 15.5151Z" fill="#303A32"/>
<path fill-rule="evenodd" clip-rule="evenodd" d="M2.22266 7.34477L8.23395 14.3509V13.9275L2.89998 7.72577L2.22266 7.34477ZM9.86376 15.8325V16.2347L12.1921 18.9652L12.4249 18.817L9.86376 15.8325Z" fill="#303A32"/>
<path fill-rule="evenodd" clip-rule="evenodd" d="M1.67188 7.02728L8.2335 14.6684V14.2662L2.3492 7.40828L1.67188 7.02728ZM9.8633 16.1501V16.5734L12.0011 19.071L12.234 18.944L9.8633 16.1501Z" fill="#303A32"/>
<path fill-rule="evenodd" clip-rule="evenodd" d="M1.12109 6.70978L8.23305 14.9859V14.5837L1.79842 7.11194L1.12109 6.70978ZM9.86285 16.4887V16.8909L11.8102 19.1769L12.043 19.0499L9.86285 16.4887Z" fill="#303A32"/>
<path fill-rule="evenodd" clip-rule="evenodd" d="M0.572266 6.39227L8.23455 15.3246V14.9224L1.24959 6.79444L0.572266 6.39227ZM9.86435 16.8062V17.2084L11.6423 19.2827L11.8752 19.1557L9.86435 16.8062Z" fill="#303A32"/>
<path fill-rule="evenodd" clip-rule="evenodd" d="M0.0214844 6.09595L8.23409 15.6421V15.2399L0.719979 6.47695L0.0214844 6.09595ZM9.8639 17.1237V17.547L11.4514 19.3885L11.6842 19.2615L9.8639 17.1237Z" fill="#303A32"/>
<path fill-rule="evenodd" clip-rule="evenodd" d="M0 6.07478V6.37112L8.23378 15.9596V15.5574L0.169332 6.15945L0 6.07478ZM9.86358 17.4624V17.7164C9.86358 17.7587 9.84241 17.801 9.82125 17.8222L11.2606 19.4944L11.4934 19.3674L9.86358 17.4624Z" fill="#303A32"/>
<path fill-rule="evenodd" clip-rule="evenodd" d="M0 6.28644V6.70977L8.23378 16.2982V15.896L0 6.28644ZM9.84242 17.7799C9.82125 17.8645 9.75775 17.9492 9.69425 17.9704L9.67308 17.9915L11.0701 19.6002L11.3029 19.4732L9.84241 17.7799L9.84242 17.7799Z" fill="#303A32"/>
<path fill-rule="evenodd" clip-rule="evenodd" d="M0 6.62511V7.02727L8.23378 16.6157V16.2136L0 6.62511ZM9.71542 17.9492C9.71542 17.9704 9.71542 17.9704 9.69425 17.9704L9.48261 18.0974L10.8796 19.706L11.1124 19.579L9.71542 17.9492L9.71542 17.9492Z" fill="#303A32"/>
<path fill-rule="evenodd" clip-rule="evenodd" d="M0 6.94261V7.34478L8.23378 16.9332V16.5311L0 6.94261ZM9.54608 18.055L9.29211 18.2032L10.7102 19.833L10.9431 19.6849L9.54608 18.055Z" fill="#303A32"/>
<path fill-rule="evenodd" clip-rule="evenodd" d="M0 7.28128V7.68345L8.23378 17.2719V16.8697L0 7.28128ZM9.35561 18.1609L9.20744 18.2455C9.16511 18.2667 9.12278 18.2667 9.08044 18.2667L10.5197 19.9389L10.7526 19.7907L9.35561 18.1609V18.1609Z" fill="#303A32"/>
<path fill-rule="evenodd" clip-rule="evenodd" d="M0 7.59877V8.00094L8.23378 17.5894V17.1872L0 7.59877ZM8.69944 18.1609L10.3292 20.0447L10.5621 19.8965L9.14394 18.2667C9.12278 18.2667 9.08044 18.2879 9.05928 18.2879H9.03811C8.97461 18.2879 8.93228 18.2667 8.88994 18.2455L8.69944 18.1609L8.69944 18.1609Z" fill="#303A32"/>
<path fill-rule="evenodd" clip-rule="evenodd" d="M0 7.91628V8.33961L10.1387 20.1505L10.3716 20.0024L8.84761 18.2244L8.38194 17.9704C8.29728 17.928 8.23378 17.8222 8.23378 17.7164V17.5047L0 7.91628Z" fill="#303A32"/>
<path fill-rule="evenodd" clip-rule="evenodd" d="M0 8.25494V8.65711L9.94825 20.2564L10.1811 20.1294L0 8.25494Z" fill="#303A32"/>
<path fill-rule="evenodd" clip-rule="evenodd" d="M0 8.57245V8.97462L9.75775 20.3622L9.99058 20.2352L0 8.57245Z" fill="#303A32"/>
<path fill-rule="evenodd" clip-rule="evenodd" d="M0 8.88994V9.31327L9.58842 20.468L9.82125 20.341L0 8.88994Z" fill="#303A32"/>
<path fill-rule="evenodd" clip-rule="evenodd" d="M0 9.22861V9.63075L9.39794 20.5739L9.63075 20.4469L0 9.22861Z" fill="#303A32"/>
<path fill-rule="evenodd" clip-rule="evenodd" d="M0 9.54608V9.94825L9.18628 20.6585C9.24978 20.6374 9.31328 20.6162 9.37678 20.595L9.44028 20.5527L0 9.54608Z" fill="#303A32"/>
<path fill-rule="evenodd" clip-rule="evenodd" d="M0 9.86359V10.2869L8.91111 20.6585C8.95344 20.6585 8.99578 20.6585 9.03811 20.6585C9.10161 20.6585 9.16511 20.6585 9.22861 20.6374L0 9.86359Z" fill="#303A32"/>
<path fill-rule="evenodd" clip-rule="evenodd" d="M0 10.2023V10.6044L8.42428 20.4257L8.72061 20.595C8.78411 20.6374 8.88994 20.6585 8.97461 20.6585L0 10.2023Z" fill="#303A32"/>
<path fill-rule="evenodd" clip-rule="evenodd" d="M0 10.5197V10.9219L7.87394 20.1082L8.57244 20.5104L0 10.5197Z" fill="#303A32"/>
<path fill-rule="evenodd" clip-rule="evenodd" d="M0 10.8584V11.2606L7.32361 19.7907L8.02211 20.1929L0 10.8584Z" fill="#303A32"/>
<path fill-rule="evenodd" clip-rule="evenodd" d="M0 11.1759V11.5781L6.77328 19.4732L7.45061 19.8754L0 11.1759Z" fill="#303A32"/>
<path fill-rule="evenodd" clip-rule="evenodd" d="M0 11.4934V11.8956L6.22294 19.1557L6.90028 19.5579L0 11.4934Z" fill="#303A32"/>
<path fill-rule="evenodd" clip-rule="evenodd" d="M0 11.8321V12.2342L5.65147 18.817L6.34994 19.2192L0 11.8321Z" fill="#303A32"/>
<path fill-rule="evenodd" clip-rule="evenodd" d="M0 12.1496V12.5517L5.10114 18.4995L5.79961 18.9017L0 12.1496Z" fill="#303A32"/>
<path fill-rule="evenodd" clip-rule="evenodd" d="M0 12.4671V12.8693L4.55081 18.182L5.24931 18.5842L0 12.4671Z" fill="#303A32"/>
<path fill-rule="evenodd" clip-rule="evenodd" d="M0 12.8058V13.2079L4.00047 17.8645L4.69897 18.2667L0 12.8058Z" fill="#303A32"/>
<path fill-rule="evenodd" clip-rule="evenodd" d="M0 13.1232V13.5254L3.45014 17.547L4.14864 17.9492L0 13.1232Z" fill="#303A32"/>
<path fill-rule="evenodd" clip-rule="evenodd" d="M0 13.4407V13.8641L2.89981 17.2295L3.57714 17.6317L0 13.4407Z" fill="#303A32"/>
<path fill-rule="evenodd" clip-rule="evenodd" d="M0 13.7794V14.1816L2.32832 16.9121L3.0268 17.3142L0 13.7794Z" fill="#303A32"/>
<path fill-rule="evenodd" clip-rule="evenodd" d="M0 14.0969V14.4991L1.77799 16.5946L2.47648 16.9756L0 14.0969Z" fill="#303A32"/>
<path fill-rule="evenodd" clip-rule="evenodd" d="M0 14.4144V14.8377L1.22766 16.2559L1.92615 16.6581L0 14.4144Z" fill="#303A32"/>
<path fill-rule="evenodd" clip-rule="evenodd" d="M0 14.7531V15.1552L0.677328 15.9384L1.37582 16.3406L0 14.7531Z" fill="#303A32"/>
<path fill-rule="evenodd" clip-rule="evenodd" d="M0 15.0706V15.1764C0 15.3881 0.148166 15.6421 0.317497 15.7479L0.825494 16.0231L0 15.0706Z" fill="#303A32"/>
<path fill-rule="evenodd" clip-rule="evenodd" d="M0.126953 15.5574C0.169286 15.5997 0.190453 15.6421 0.232786 15.6632L0.126953 15.5574Z" fill="#303A32"/>
</g>
<defs>
<clipPath id="clip0_582_18377">
<rect width="50" height="21" fill="white"/>
</clipPath>
</defs>
</svg>
