<svg width="41" height="25" viewBox="0 0 41 25" fill="none" xmlns="http://www.w3.org/2000/svg">
<path fill-rule="evenodd" clip-rule="evenodd" d="M1.78803 1.84051C1.37124 2.3479 1.20385 2.99433 1.20385 3.53298V21.4672C1.20385 21.9829 1.37068 22.6301 1.78869 23.144C2.20026 23.6499 2.86813 24.043 3.91069 24.043H37.6063C38.6601 24.043 39.3274 23.6495 39.7358 23.1445C40.1508 22.6313 40.3129 21.9842 40.3129 21.4672V3.53298C40.3129 2.99297 40.1503 2.34673 39.7365 1.84001C39.3292 1.34112 38.6623 0.956963 37.6063 0.956963H3.91069C2.86611 0.956963 2.19858 1.34072 1.78803 1.84051ZM1.45304 1.56533C1.95205 0.957849 2.74633 0.523438 3.91069 0.523438H37.6063C38.7809 0.523438 39.5756 0.957448 40.0723 1.56583C40.5627 2.16639 40.7464 2.91655 40.7464 3.53298V21.4672C40.7464 22.0629 40.5621 22.8121 40.0729 23.417C39.5772 24.0301 38.7828 24.4766 37.6063 24.4766H3.91069C2.74431 24.4766 1.95038 24.0297 1.45238 23.4175C0.960823 22.8133 0.770325 22.0642 0.770325 21.4672V3.53298C0.770325 2.91518 0.960263 2.16522 1.45304 1.56533Z" fill="#8B8E8A"/>
<path fill-rule="evenodd" clip-rule="evenodd" d="M12.8327 14.3778H18.9829L22.4263 10.6904H28.5975L23.3571 16.5374H3.97565V12.6322H14.3702L12.8327 14.3778Z" fill="#8B8E8A"/>
<path fill-rule="evenodd" clip-rule="evenodd" d="M28.5975 10.689H22.4263L18.9829 14.3977H12.7894L18.03 8.55078H37.4333V12.4344H27.0386L28.5975 10.689Z" fill="#8B8E8A"/>
<path d="M33.9465 7.37212C34.2935 7.37212 34.6614 7.28468 34.943 7.11026V6.04125C34.6614 6.25928 34.423 6.28108 34.0335 6.28108C33.687 6.28108 33.2755 6.04102 33.2755 5.64835C33.2755 5.19027 33.687 4.9066 34.0335 4.9066C34.4016 4.9066 34.7266 4.97201 34.943 5.16846V4.07765C34.6614 3.903 34.2499 3.8376 33.8816 3.8376C32.864 3.8376 32.0626 4.57934 32.0626 5.60497C32.0626 6.63038 32.9505 7.37212 33.9465 7.37212Z" fill="#8B8E8A"/>
<path d="M37.4765 7.11026V6.28108C37.2814 6.49933 36.8483 6.52114 36.8486 6.25928V4.8412H37.4765V3.9248H36.7834V2.46289L35.5709 3.11765V3.9248H35.1374V4.92864H35.5709V6.45573C35.5709 7.21927 36.5885 7.7648 37.4765 7.11026Z" fill="#8B8E8A"/>
<path fill-rule="evenodd" clip-rule="evenodd" d="M27.6451 6.25928V4.8412H28.2946V3.9248H27.6231V2.46289L26.389 3.11765V3.9248H25.9555V4.92864H26.389V6.45573C26.389 7.21927 27.3851 7.7648 28.2946 7.11026V6.28108C28.0995 6.49933 27.6451 6.52114 27.6451 6.25928Z" fill="#8B8E8A"/>
<path fill-rule="evenodd" clip-rule="evenodd" d="M7.15901 4.66712C8.19842 3.72915 7.37543 2.22363 6.2495 2.22363H3.99719V7.28525H6.42278C7.87367 7.26322 8.45844 5.4745 7.15901 4.66712ZM17.2067 7.37269C17.5751 7.37269 17.8998 7.28525 18.1814 7.11083V6.04182C17.8998 6.25985 17.6616 6.28165 17.2935 6.28165C16.9469 6.28165 16.5139 6.04159 16.5139 5.64892C16.5139 5.19084 16.9254 4.90717 17.2935 4.90717C17.6616 4.90717 17.9432 4.97258 18.1814 5.16903V4.07822C17.8996 3.90357 17.4883 3.83816 17.1202 3.83816C16.1242 3.83816 15.3228 4.57991 15.3228 5.60554C15.3228 6.63095 16.1889 7.37269 17.2067 7.37269ZM15.0848 7.30705V5.1034C15.0848 4.14363 13.9371 3.44526 12.9195 4.20904V3.92537H11.685V7.30705H12.8977V5.40886C12.8977 4.75433 13.8721 4.73253 13.8721 5.40886V7.30705H15.0848ZM25.7827 7.30705V5.1034C25.7827 4.14363 24.6347 3.44526 23.5953 4.20904V3.92537H22.3829V7.30705H23.5953V5.40886C23.5953 4.75433 24.5698 4.73253 24.5698 5.40886V7.30705H25.7827ZM30.3087 5.06002C30.6336 5.06002 30.7635 4.75456 30.352 4.73275C29.9835 4.71072 29.2474 4.75433 28.7061 5.01619L28.9011 4.07799C30.1136 3.66351 31.8461 3.90357 31.8461 4.99438V7.30728H30.7201L30.6768 7.19804C30.1572 7.52531 28.2512 7.67815 28.5112 6.17264C28.6627 5.27805 29.6807 5.06002 30.3087 5.06002ZM20.2605 3.81673C19.2645 3.81673 18.3981 4.6023 18.3981 5.60591C18.3981 6.63131 19.2643 7.39486 20.2821 7.39486C21.2997 7.39486 22.1447 6.67492 22.1447 5.64951C22.1447 4.60207 21.2997 3.81673 20.2605 3.81673ZM9.88759 4.73312C10.2773 4.75492 10.1474 5.06039 9.82264 5.06039C9.1945 5.06039 8.19847 5.27841 8.04677 6.173C7.7436 7.67852 9.71431 7.52567 10.2123 7.19841L10.2339 7.30765H11.3816V4.99475C11.3816 3.90394 9.64937 3.66388 8.43646 4.07836L8.26319 5.01655C8.76143 4.75469 9.51947 4.71109 9.88759 4.73312ZM30.6334 6.23773C30.6334 6.69582 29.7455 6.82663 29.7455 6.34675C29.7455 5.91047 30.3949 5.77965 30.6334 5.82303V6.23773ZM5.38317 3.24962V4.20962H5.94613C6.33605 4.20962 6.5527 3.53328 5.92456 3.24962C5.77309 3.20601 5.38317 3.22782 5.38317 3.24962ZM19.6108 5.60613C19.6108 5.16962 19.914 4.92979 20.2821 4.92979C20.6502 4.92979 20.9752 5.16962 20.9752 5.64973C20.9752 6.0206 20.6502 6.32607 20.2821 6.32607C19.914 6.32607 19.6108 6.0206 19.6108 5.60613ZM10.1689 6.23863C10.1689 6.69671 9.25942 6.82753 9.25942 6.34764C9.25942 5.91136 9.90913 5.78055 10.1689 5.82392V6.23863ZM5.94613 6.28223H5.38317V5.25683H5.92456C6.59585 5.25683 6.66079 6.28223 5.94613 6.28223Z" fill="#8B8E8A"/>
<path fill-rule="evenodd" clip-rule="evenodd" d="M14.9333 20.1783V21.618C14.9333 21.8582 15.4095 21.8149 15.6048 21.6182V22.4694C14.6735 23.1237 13.6557 22.6002 13.6557 21.8149V20.2437H13.2226V19.2401H13.6557V18.3893L14.89 17.7344V19.2401H15.6046V20.1783H14.9333ZM10.2772 19.2401V22.6436H8.97781V19.2401H10.2772ZM10.3422 18.4107C10.3422 18.8034 10.0174 19.1306 9.62752 19.1306C9.25941 19.1306 8.95647 18.8036 8.95624 18.4107C8.95624 18.04 9.25941 17.7344 9.62752 17.7344C10.0172 17.7344 10.3422 18.04 10.3422 18.4107ZM32.2144 22.709C31.8895 22.709 31.3915 22.6436 30.98 22.4692V21.5092C31.5603 21.7429 31.9334 21.7332 32.1143 21.7285C32.1359 21.7279 32.1547 21.7274 32.1708 21.7274C32.3439 21.7274 32.5174 21.6836 32.5174 21.5092C32.5174 21.3781 32.2789 21.2693 32.0194 21.2473C31.3912 21.1163 31.0013 20.8326 31.0013 20.2871C31.0013 19.5892 31.6294 19.1527 32.3439 19.1527C32.6904 19.1527 33.1453 19.2399 33.4703 19.3489L33.5348 20.265C33.2968 20.1563 32.8853 20.0688 32.6473 20.0688C32.3439 20.0688 32.2789 20.1781 32.2789 20.265C32.2789 20.3745 32.5174 20.4399 32.6039 20.4399C33.2105 20.5274 33.86 20.876 33.86 21.5089C33.86 22.0545 33.4705 22.709 32.2144 22.709ZM25.8908 21.618C26.4322 21.618 26.7572 21.5525 27.1687 21.2473V22.3817C26.7572 22.6213 26.2807 22.7308 25.7827 22.7308C24.3102 22.7308 23.0542 21.6398 23.0542 20.2001C23.0542 18.738 24.2017 17.6689 25.6962 17.6689C26.1942 17.6689 26.7572 17.7344 27.1687 17.9746V19.1527C26.8437 18.8474 26.4108 18.76 25.8908 18.76C24.7433 18.76 24.3318 19.4799 24.3318 20.2437C24.3318 20.9416 25.0683 21.618 25.8908 21.618ZM29.2041 20.3527C29.5291 20.3527 29.659 20.0254 29.2475 20.0039C28.8796 19.9818 28.1215 20.0255 27.5799 20.2873L27.753 19.3491C29.009 18.9344 30.7849 19.1527 30.7849 20.2653V22.6218H29.6154L29.572 22.5348C29.0526 22.8621 27.1035 22.9929 27.3851 21.4658C27.5152 20.571 28.5546 20.3527 29.2041 20.3527ZM35.2459 17.7346V19.502C36.3069 18.738 37.4764 19.4363 37.4764 20.4402V22.6872H36.2419V20.7454C36.2419 20.0691 35.2459 20.0909 35.2459 20.7454V22.6872H34.0335V17.7346H35.2459ZM29.5291 21.5318V21.1171C29.2906 21.095 28.6195 21.2045 28.6195 21.6408C28.6195 22.1207 29.5291 22.0119 29.5291 21.5318Z" fill="#8B8E8A"/>
<path fill-rule="evenodd" clip-rule="evenodd" d="M17.3801 19.1527C18.5712 19.1527 19.0479 19.9165 19.0479 21.0945H16.7956C16.7956 21.5526 17.1419 21.7274 17.7916 21.7274C18.1166 21.7274 18.5712 21.5966 18.9827 21.3784V22.382C18.9827 22.382 18.4845 22.7746 17.51 22.7746C16.3841 22.7746 15.5827 22.0111 15.5827 20.9637C15.5827 20.0039 16.2542 19.1527 17.3801 19.1527ZM7.33218 19.829L6.33615 21.2694L5.31832 19.829V22.687H4.01912L3.99731 17.7344H5.31832L6.33615 19.2181L7.33218 17.7344H8.65318L8.6316 22.687H7.33218V19.829ZM21.2348 20.1783C20.8667 20.1783 20.5853 20.4181 20.4554 20.7018V22.6872H19.2861V19.1747H20.4554V19.5238C20.6287 19.3055 21.0404 19.1307 21.3434 19.1307C21.5166 19.1307 21.6897 19.1747 21.7982 19.3055V20.3745C21.6463 20.2653 21.4299 20.1783 21.2348 20.1783ZM11.7282 22.709C11.4035 22.709 10.9055 22.6436 10.494 22.4692V21.5092C11.0745 21.743 11.4475 21.7332 11.6284 21.7285C11.6499 21.7279 11.6687 21.7274 11.6849 21.7274C11.8584 21.7274 12.0314 21.6836 12.0314 21.5092C12.0314 21.3781 11.7932 21.2694 11.5334 21.2473C10.9055 21.1163 10.5156 20.8326 10.5156 20.2871C10.5156 19.5892 11.1437 19.1527 11.8584 19.1527C12.2049 19.1527 12.6596 19.2399 12.9845 19.3489L13.0277 20.2651C12.811 20.1563 12.378 20.0688 12.1397 20.0688C11.8584 20.0688 11.7932 20.1781 11.7932 20.2651C11.7932 20.3745 12.0314 20.4399 12.1182 20.4399C12.7027 20.5274 13.3524 20.876 13.3524 21.509C13.3524 22.0545 12.9843 22.709 11.7282 22.709ZM16.7522 20.418C16.8172 20.0907 17.0772 19.9819 17.3154 19.9819C17.5536 19.9819 17.8568 20.0909 17.8568 20.418H16.7522Z" fill="#8B8E8A"/>
</svg>
