<svg width="51" height="21" viewBox="0 0 51 21" fill="none" xmlns="http://www.w3.org/2000/svg">
<g clip-path="url(#clip0_1289_12312)">
<path fill-rule="evenodd" clip-rule="evenodd" d="M32.9195 16.5736C32.0094 16.8276 30.824 16.9334 29.808 16.9334C27.1623 16.9334 25.4266 15.5576 25.4266 13.0388C25.4266 10.6469 27.0564 9.10178 29.427 9.10178C29.9562 9.10178 30.5277 9.16528 30.8664 9.33462V5.86328H32.9195V16.5736ZM30.8664 11.1126C30.5489 10.9644 30.1044 10.8798 29.5964 10.8798C28.3476 10.8798 27.5221 11.6418 27.5221 12.9753C27.5221 14.3934 28.4111 15.1977 29.8715 15.1977C30.1255 15.1977 30.5277 15.1977 30.8664 15.1131V11.1126ZM49.7894 16.5736C48.8792 16.8276 47.6939 16.9334 46.6567 16.9334C44.032 16.9334 42.2752 15.5576 42.2752 13.0388C42.2752 10.6469 43.905 9.10178 46.2757 9.10178C46.826 9.10178 47.3764 9.16528 47.715 9.33462V5.86328H49.7894V16.5736ZM47.715 11.1126C47.3975 10.9644 46.9742 10.8798 46.4662 10.8798C45.1962 10.8798 44.3707 11.6418 44.3707 12.9753C44.3707 14.3934 45.2809 15.1977 46.7414 15.1977C46.9954 15.1977 47.3764 15.1977 47.715 15.1131V11.1126ZM36.158 11.1126C36.4967 10.9644 36.9835 10.9221 37.3857 10.9221C38.6557 10.9221 39.5235 11.6418 39.5235 12.9329C39.5235 14.4569 38.5499 15.1554 37.2587 15.1766V16.9334H37.3645C40.0315 16.9334 41.619 15.4729 41.619 12.8694C41.619 10.4988 39.9257 9.10178 37.428 9.10178C36.158 9.10178 34.9092 9.39811 34.0837 9.73675V19.7909H36.158V11.1126Z" fill="#8B8E8A"/>
<path fill-rule="evenodd" clip-rule="evenodd" d="M17.849 4.21191L18.1876 4.59291L18.3781 4.48708L17.849 4.21191Z" fill="#8B8E8A"/>
<path fill-rule="evenodd" clip-rule="evenodd" d="M17.3411 3.93701L17.9972 4.69901L18.23 4.57201L17.976 4.27568L17.3411 3.93701Z" fill="#8B8E8A"/>
<path fill-rule="evenodd" clip-rule="evenodd" d="M16.8119 3.66162L17.8067 4.80462L18.0395 4.67762L17.4681 4.00029L16.8119 3.66162Z" fill="#8B8E8A"/>
<path fill-rule="evenodd" clip-rule="evenodd" d="M16.3038 3.38672L17.6162 4.91072L17.849 4.78372L16.9388 3.72539L16.3038 3.38672ZM18.8226 6.07486L18.6745 6.15952L18.8226 6.32886V6.07486Z" fill="#8B8E8A"/>
<path fill-rule="evenodd" clip-rule="evenodd" d="M15.7959 3.11133L17.4257 5.01633L17.6586 4.88933L16.4309 3.44999L15.7959 3.11133ZM18.738 6.11697L18.5052 6.26513L18.8227 6.64613V6.24397L18.738 6.11697H18.738Z" fill="#8B8E8A"/>
<path fill-rule="evenodd" clip-rule="evenodd" d="M15.2667 2.83643L17.2352 5.12243L17.4892 4.99543L15.9229 3.17509L15.2667 2.83643ZM18.5475 6.22306L18.3147 6.37123L18.8227 6.9639V6.56173L18.5475 6.22306Z" fill="#8B8E8A"/>
<path fill-rule="evenodd" clip-rule="evenodd" d="M14.7587 2.56104L17.0658 5.22803L17.2987 5.10103L15.3937 2.89969L14.7587 2.56104ZM18.357 6.34983L18.1241 6.47683L18.8226 7.30233V6.90017L18.357 6.34983Z" fill="#8B8E8A"/>
<path fill-rule="evenodd" clip-rule="evenodd" d="M14.2507 2.28613L16.8754 5.33412L17.1082 5.20712L14.8857 2.6248L14.2507 2.28613ZM18.1665 6.45593L17.9337 6.58293L18.8227 7.62009V7.21793L18.1665 6.45593Z" fill="#8B8E8A"/>
<path fill-rule="evenodd" clip-rule="evenodd" d="M13.7216 2.01074L16.6849 5.43973L16.9177 5.31273L14.3777 2.34941L13.7216 2.01074ZM17.976 6.56153L17.7432 6.68853L18.8227 7.93737V7.5352L17.976 6.56153Z" fill="#8B8E8A"/>
<path fill-rule="evenodd" clip-rule="evenodd" d="M13.2135 1.73584L16.4943 5.56699L16.7271 5.41883L13.8485 2.07451L13.2135 1.73584ZM17.7855 6.66763L17.5526 6.79463L18.8226 8.2763V7.87413L17.7855 6.66763Z" fill="#8B8E8A"/>
<path fill-rule="evenodd" clip-rule="evenodd" d="M12.6843 1.46045L16.3038 5.6726L16.5366 5.52443L13.3405 1.79911L12.6843 1.46045ZM17.6161 6.77324L17.3621 6.90024L18.8226 8.59357V8.1914L17.6161 6.77324Z" fill="#8B8E8A"/>
<path fill-rule="evenodd" clip-rule="evenodd" d="M12.1764 1.18555L16.1134 5.77867L16.3674 5.63053L12.8326 1.52421L12.1764 1.18555ZM17.4257 6.87933L17.1929 7.00633L18.8227 8.9325V8.50917L17.4257 6.87933Z" fill="#8B8E8A"/>
<path fill-rule="evenodd" clip-rule="evenodd" d="M11.6683 0.910156L15.944 5.88427L16.1768 5.73611L12.3033 1.24882L11.6683 0.910156ZM17.2351 6.98494L17.0023 7.11194L18.8226 9.24977V8.84761L17.2351 6.98494Z" fill="#8B8E8A"/>
<path fill-rule="evenodd" clip-rule="evenodd" d="M11.1392 0.61377L15.7535 5.99005L15.9863 5.84189L11.7953 0.9736L11.1392 0.61377ZM17.0446 7.09072L16.8118 7.21772L18.8226 9.56719V9.16505L17.0446 7.09072Z" fill="#8B8E8A"/>
<path fill-rule="evenodd" clip-rule="evenodd" d="M10.6312 0.338867L15.563 6.09615L15.7959 5.96915L11.2874 0.698698L10.6312 0.338867ZM16.8542 7.19681L16.6214 7.32381L18.8227 9.90612V9.48281L16.8542 7.19681Z" fill="#8B8E8A"/>
<path fill-rule="evenodd" clip-rule="evenodd" d="M10.1233 0.0844727L15.3726 6.20158L15.6054 6.07458L10.7583 0.423137L10.1233 0.0844727ZM16.6637 7.30225L16.4309 7.42925L18.8227 10.2232V9.82106L16.6637 7.30225Z" fill="#8B8E8A"/>
<path fill-rule="evenodd" clip-rule="evenodd" d="M9.78455 0L15.182 6.30761L15.4148 6.18061L10.2502 0.148166L10.1232 0.0846661C10.0174 0.0211665 9.91155 0 9.78455 0ZM16.4732 7.40828L16.2403 7.53528L18.8226 10.5409V10.1387L16.4732 7.40828Z" fill="#8B8E8A"/>
<path fill-rule="evenodd" clip-rule="evenodd" d="M9.78452 0C9.69985 0 9.61518 0.0211665 9.53052 0.0423331L14.9915 6.41344L15.2455 6.28644L9.84802 0C9.82685 0 9.80568 0 9.78452 0ZM16.3038 7.51411L16.071 7.64111L18.8226 10.8796V10.4562L16.3038 7.51411Z" fill="#8B8E8A"/>
<path fill-rule="evenodd" clip-rule="evenodd" d="M9.59409 0.0209961C9.55175 0.0421626 9.48825 0.063329 9.46709 0.0844957L9.34009 0.147995L14.8222 6.51911L15.055 6.39211L9.59409 0.0209961ZM16.1134 7.61977L15.8805 7.76794L18.8227 11.1969V10.7947L16.1134 7.61977Z" fill="#8B8E8A"/>
<path fill-rule="evenodd" clip-rule="evenodd" d="M9.38237 0.105957L9.14954 0.232956L14.6316 6.62523L14.8645 6.49823L9.38237 0.105957ZM15.9228 7.7259L15.69 7.87407L18.8226 11.5147V11.1125L15.9228 7.7259Z" fill="#8B8E8A"/>
<path fill-rule="evenodd" clip-rule="evenodd" d="M9.19194 0.211426L8.95911 0.338425L14.4412 6.7307L14.6741 6.6037L9.19194 0.211426ZM15.7324 7.83137L15.4995 7.97954L18.8227 11.853V11.4508L15.7324 7.83137Z" fill="#8B8E8A"/>
<path fill-rule="evenodd" clip-rule="evenodd" d="M9.00139 0.317383L8.76855 0.444383L14.2507 6.83666L14.4835 6.70966L9.00139 0.317383ZM15.5418 7.93733L15.309 8.0855L18.8226 12.1706V11.7685L15.5418 7.93733Z" fill="#8B8E8A"/>
<path fill-rule="evenodd" clip-rule="evenodd" d="M8.81096 0.42334L8.57812 0.55034L14.0603 6.94262L14.2931 6.81562L8.81096 0.42334ZM15.3514 8.04329L15.1186 8.19145L18.8227 12.4883V12.0861L15.3514 8.04329Z" fill="#8B8E8A"/>
<path fill-rule="evenodd" clip-rule="evenodd" d="M8.62041 0.529297L8.38757 0.656294L13.8697 7.04858L14.1025 6.92158L8.62041 0.529297ZM15.182 8.14924L14.9492 8.29741L18.8227 12.827V12.4249L15.182 8.14924Z" fill="#8B8E8A"/>
<path fill-rule="evenodd" clip-rule="evenodd" d="M8.42985 0.61377L8.19702 0.761936L13.7003 7.15422L13.9332 7.02722L8.42985 0.61377ZM14.9915 8.27605L14.7586 8.40305L18.8226 13.1444V12.7422L14.9915 8.27605Z" fill="#8B8E8A"/>
<path fill-rule="evenodd" clip-rule="evenodd" d="M8.23943 0.719727L8.00659 0.846727L13.5099 7.26018L13.7427 7.13318L8.23943 0.719727ZM14.801 8.38201L14.5682 8.50901L18.8227 13.4831V13.0598L14.801 8.38201Z" fill="#8B8E8A"/>
<path fill-rule="evenodd" clip-rule="evenodd" d="M8.04887 0.825684L7.81604 0.952684L13.3193 7.3873L13.5522 7.23913L8.04887 0.825684ZM14.6105 8.48797L14.3777 8.61497L18.8226 13.8007V13.3986L14.6105 8.48797Z" fill="#8B8E8A"/>
<path fill-rule="evenodd" clip-rule="evenodd" d="M7.85844 0.931152L7.62561 1.05815L13.1289 7.49277L13.3617 7.3446L7.85844 0.931152ZM14.4201 8.59343L14.1872 8.72044L18.8227 14.1179V13.7157L14.4201 8.59343Z" fill="#8B8E8A"/>
<path fill-rule="evenodd" clip-rule="evenodd" d="M7.66789 1.03711L7.43506 1.16411L12.9384 7.59873L13.1712 7.45056L7.66789 1.03711ZM14.2295 8.6994L13.9967 8.8264L18.8226 14.4567V14.0333L14.2295 8.6994Z" fill="#8B8E8A"/>
<path fill-rule="evenodd" clip-rule="evenodd" d="M7.47746 1.14307L7.24463 1.27007L12.7479 7.70469L12.9808 7.55652L7.47746 1.14307ZM14.0603 8.80535L13.8274 8.93235L18.8227 14.7743V14.3721L14.0603 8.80535Z" fill="#8B8E8A"/>
<path fill-rule="evenodd" clip-rule="evenodd" d="M7.28696 1.22754L7.03296 1.35454L12.5786 7.81032L12.8114 7.66216L7.28696 1.22754ZM13.8698 8.91099L13.6369 9.03799L18.8227 15.0916V14.6894L13.8698 8.91099Z" fill="#8B8E8A"/>
<path fill-rule="evenodd" clip-rule="evenodd" d="M7.09641 1.3335L6.84241 1.46049L12.4092 7.93745C12.4304 7.89512 12.4515 7.87395 12.4939 7.85278L12.6209 7.76812L7.09641 1.3335L7.09641 1.3335ZM13.6792 9.01695L13.4464 9.14395L18.7803 15.3669C18.8015 15.3034 18.8227 15.2399 18.8227 15.1764V15.0071L13.6792 9.01695H13.6792Z" fill="#8B8E8A"/>
<path fill-rule="evenodd" clip-rule="evenodd" d="M6.90586 1.43945L6.65186 1.56645L12.3457 8.19157V8.10691C12.3457 8.04341 12.388 7.95874 12.4303 7.89524L6.90586 1.43945ZM13.4887 9.12291L13.3193 9.22874C13.2982 9.22874 13.277 9.24991 13.2558 9.24991L18.6744 15.5787C18.7379 15.494 18.7803 15.4094 18.8014 15.3247L13.4887 9.12291Z" fill="#8B8E8A"/>
<path fill-rule="evenodd" clip-rule="evenodd" d="M6.7154 1.54492L6.46143 1.67192L12.3457 8.52988V8.10654L6.7154 1.54492ZM12.896 9.14371L18.5263 15.7265C18.5898 15.6842 18.6533 15.5995 18.7168 15.536L13.2982 9.22838C13.2135 9.27071 13.0865 9.27071 13.0019 9.22838L12.896 9.14371Z" fill="#8B8E8A"/>
<path fill-rule="evenodd" clip-rule="evenodd" d="M6.52485 1.65088L6.27087 1.77788L18.3358 15.8324L18.5051 15.7478C18.5263 15.7266 18.5474 15.7054 18.5686 15.6843L13.023 9.2285H13.0018L12.515 8.93217C12.4727 8.911 12.4515 8.86867 12.4092 8.82633C12.3668 8.76283 12.3668 8.7205 12.3457 8.67817V8.44533L6.52485 1.65088Z" fill="#8B8E8A"/>
<path fill-rule="evenodd" clip-rule="evenodd" d="M6.33444 1.75684L6.08044 1.88384L18.1453 15.9384L18.3782 15.8114L6.33444 1.75684Z" fill="#8B8E8A"/>
<path fill-rule="evenodd" clip-rule="evenodd" d="M6.14389 1.84131L5.88989 1.96831L17.9759 16.044L18.2088 15.917L6.14389 1.84131Z" fill="#8B8E8A"/>
<path fill-rule="evenodd" clip-rule="evenodd" d="M5.95346 1.94727L5.69946 2.07427L17.7855 16.15L18.0183 16.023L5.95346 1.94727Z" fill="#8B8E8A"/>
<path fill-rule="evenodd" clip-rule="evenodd" d="M5.76291 2.05322L5.50891 2.18022L17.595 16.256L17.8278 16.129L5.76291 2.05322Z" fill="#8B8E8A"/>
<path fill-rule="evenodd" clip-rule="evenodd" d="M5.55131 2.15918L5.31848 2.28618L17.4046 16.3831L17.6374 16.2349L5.55131 2.15918Z" fill="#8B8E8A"/>
<path fill-rule="evenodd" clip-rule="evenodd" d="M5.36076 2.26465L5.12793 2.39165L17.214 16.4886L17.4468 16.3404L5.36076 2.26465Z" fill="#8B8E8A"/>
<path fill-rule="evenodd" clip-rule="evenodd" d="M5.17021 2.37061L4.93738 2.4976L17.0446 16.5945L17.2775 16.4463L5.17021 2.37061Z" fill="#8B8E8A"/>
<path fill-rule="evenodd" clip-rule="evenodd" d="M4.97978 2.45508L4.74695 2.58208L16.8542 16.7001L17.087 16.552L4.97978 2.45508Z" fill="#8B8E8A"/>
<path fill-rule="evenodd" clip-rule="evenodd" d="M4.78923 2.56104L4.5564 2.68804L16.6636 16.8061L16.8965 16.6791L4.78923 2.56104Z" fill="#8B8E8A"/>
<path fill-rule="evenodd" clip-rule="evenodd" d="M4.5988 2.66699L4.36597 2.79399L10.2503 9.65193L10.4407 9.77893C10.5254 9.82126 10.6101 9.92709 10.6101 10.0329V10.0541L16.4732 16.9121L16.706 16.7851L4.5988 2.66699Z" fill="#8B8E8A"/>
<path fill-rule="evenodd" clip-rule="evenodd" d="M4.40825 2.77295L4.17542 2.89994L9.69989 9.35575L10.3984 9.73672L4.40825 2.77295ZM10.5889 9.96955C10.5889 9.99072 10.61 10.0119 10.61 10.0331V10.3929L16.2827 17.018L16.5155 16.891L10.5889 9.96955Z" fill="#8B8E8A"/>
<path fill-rule="evenodd" clip-rule="evenodd" d="M4.21782 2.87842L3.98499 3.00542L9.14962 9.03789L9.84812 9.41889L4.21782 2.87842ZM10.6101 10.3079V10.71L16.1134 17.1235L16.3462 16.9965L10.6101 10.3079Z" fill="#8B8E8A"/>
<path fill-rule="evenodd" clip-rule="evenodd" d="M4.02727 2.98438L3.79443 3.11138L8.62041 8.72051L9.29774 9.10151L4.02727 2.98438ZM10.61 10.6255V11.0488L15.9228 17.2294L16.1557 17.1025L10.61 10.6255Z" fill="#8B8E8A"/>
<path fill-rule="evenodd" clip-rule="evenodd" d="M3.83672 3.06934L3.60388 3.19634L8.07002 8.40331L8.74735 8.80547L3.83672 3.06934ZM10.61 10.9644V11.3666L15.7323 17.3356L15.9651 17.2086L10.61 10.9644Z" fill="#8B8E8A"/>
<path fill-rule="evenodd" clip-rule="evenodd" d="M3.64628 3.1748L3.41345 3.3018L7.51975 8.08544L8.19708 8.48761L3.64628 3.1748ZM10.6101 11.2816V11.6837L15.5419 17.441L15.7747 17.314L10.6101 11.2816Z" fill="#8B8E8A"/>
<path fill-rule="evenodd" clip-rule="evenodd" d="M3.45573 3.28076L3.2229 3.40776L6.96936 7.78923L7.64669 8.17023L3.45573 3.28076ZM10.61 11.5992V12.0225L15.3513 17.5681L15.5841 17.42L10.61 11.5992Z" fill="#8B8E8A"/>
<path fill-rule="evenodd" clip-rule="evenodd" d="M3.2653 3.38672L3.03247 3.51372L6.41913 7.47186L7.09643 7.85286L3.2653 3.38672ZM10.6101 11.938V12.3402L15.182 17.6741L15.4149 17.5259L10.6101 11.938Z" fill="#8B8E8A"/>
<path fill-rule="evenodd" clip-rule="evenodd" d="M3.07475 3.49268L2.84192 3.61968L5.86874 7.15448L6.56721 7.53548L3.07475 3.49268ZM10.61 12.2556V12.6578L14.9915 17.7801L15.2243 17.6319L10.61 12.2556Z" fill="#8B8E8A"/>
<path fill-rule="evenodd" clip-rule="evenodd" d="M2.88432 3.59814L2.65149 3.72514L5.31847 6.83662L6.01697 7.23878L2.88432 3.59814ZM8.42995 10.4561L8.98028 11.0911V10.8583C8.98028 10.8159 8.93795 10.7524 8.89561 10.7313L8.42995 10.4561ZM10.6101 12.5728V12.9961L14.8011 17.8855L15.0339 17.7374L10.6101 12.5728Z" fill="#8B8E8A"/>
<path fill-rule="evenodd" clip-rule="evenodd" d="M2.69377 3.68311L2.46094 3.81011L4.76809 6.51941L5.46659 6.92158L2.69377 3.68311ZM7.87956 10.1389L8.98023 11.4089V11.0067L8.57806 10.541L7.87956 10.1389ZM10.61 12.9117V13.3139L14.6105 17.9917L14.8433 17.8647L10.61 12.9117Z" fill="#8B8E8A"/>
<path fill-rule="evenodd" clip-rule="evenodd" d="M2.50334 3.78857L2.27051 3.91557L4.23899 6.22271L4.91632 6.60371L2.50334 3.78857ZM7.3293 9.84218L8.9803 11.7472V11.345L8.0278 10.2232L7.3293 9.84218ZM10.6101 13.2289V13.631L14.4201 18.0971L14.6529 17.9701L10.6101 13.2289Z" fill="#8B8E8A"/>
<path fill-rule="evenodd" clip-rule="evenodd" d="M2.31279 3.89453L2.07996 4.02153L3.6886 5.90534L4.36594 6.28634L2.31279 3.89453ZM6.80008 9.52484L8.98024 12.0648V11.6626L7.47741 9.90581L6.80008 9.52484ZM10.61 13.5676V13.9698L14.2507 18.2031L14.4835 18.0761L10.61 13.5676Z" fill="#8B8E8A"/>
<path fill-rule="evenodd" clip-rule="evenodd" d="M2.12223 4.00049L1.8894 4.12749L3.13823 5.58799L3.81555 5.96896L2.12223 4.00049ZM6.24972 9.20746L8.98019 12.3824V11.9803L6.92702 9.6096L6.24972 9.20746ZM10.61 13.8852V14.2874L14.0602 18.309L14.293 18.182L10.61 13.8852Z" fill="#8B8E8A"/>
<path fill-rule="evenodd" clip-rule="evenodd" d="M1.93181 4.10645L1.69897 4.23345L2.58797 5.27061L3.26529 5.67278L1.93181 4.10645ZM5.69945 8.89008L8.98026 12.7212V12.3191L6.37679 9.29225L5.69945 8.89008ZM10.6101 14.2029V14.605L13.8697 18.415L14.1025 18.288L10.6101 14.2029Z" fill="#8B8E8A"/>
<path fill-rule="evenodd" clip-rule="evenodd" d="M1.74125 4.21191L1.50842 4.33891L2.03759 4.95275L2.73608 5.35491L1.74125 4.21191ZM5.14907 8.59339L8.98021 13.0384V12.6362L5.8264 8.97439L5.14907 8.59339ZM10.61 14.5412V14.9433L13.6792 18.5205L13.912 18.3935L10.61 14.5412Z" fill="#8B8E8A"/>
<path fill-rule="evenodd" clip-rule="evenodd" d="M1.55075 4.29688L1.29675 4.42388L1.48725 4.65671L2.18574 5.03771L1.55075 4.29688ZM4.59873 8.27618L8.9802 13.3773V12.954L5.29723 8.65718L4.59873 8.27618ZM10.61 14.859V15.2611L13.4887 18.6478L13.7215 18.4996L10.61 14.859Z" fill="#8B8E8A"/>
<path fill-rule="evenodd" clip-rule="evenodd" d="M1.36032 4.40283L1.21216 4.4875L1.63549 4.72033L1.36032 4.40283V4.40283ZM4.04847 7.9588L8.98027 13.6949V13.2928L4.74697 8.36097L4.04847 7.9588ZM10.6101 15.1766V15.5999L13.3194 18.7537L13.5522 18.6056L10.6101 15.1766Z" fill="#8B8E8A"/>
<path fill-rule="evenodd" clip-rule="evenodd" d="M3.51929 7.64111L8.98025 14.0122V13.6101L4.19661 8.04328L3.51929 7.64111ZM10.6101 15.5151V15.9172L13.1289 18.8594L13.3617 18.7112L10.6101 15.5151Z" fill="#8B8E8A"/>
<path fill-rule="evenodd" clip-rule="evenodd" d="M2.96899 7.34473L8.98029 14.3508V13.9275L3.64632 7.72573L2.96899 7.34473ZM10.6101 15.8325V16.2347L12.9384 18.9651L13.1713 18.817L10.6101 15.8325Z" fill="#8B8E8A"/>
<path fill-rule="evenodd" clip-rule="evenodd" d="M2.41858 7.02734L8.9802 14.6685V14.2663L3.09591 7.40834L2.41858 7.02734ZM10.61 16.1501V16.5735L12.7478 19.0711L12.9807 18.9441L10.61 16.1501Z" fill="#8B8E8A"/>
<path fill-rule="evenodd" clip-rule="evenodd" d="M1.86829 6.70996L8.98024 14.9861V14.5839L2.54561 7.11213L1.86829 6.70996ZM10.61 16.4889V16.8911L12.5574 19.177L12.7902 19.05L10.61 16.4889Z" fill="#8B8E8A"/>
<path fill-rule="evenodd" clip-rule="evenodd" d="M1.31799 6.39209L8.98027 15.3244V14.9222L1.99532 6.79426L1.31799 6.39209ZM10.6101 16.806V17.2082L12.3881 19.2825L12.6209 19.1555L10.6101 16.806Z" fill="#8B8E8A"/>
<path fill-rule="evenodd" clip-rule="evenodd" d="M0.767578 6.0957L8.98019 15.6418V15.2396L1.46607 6.4767L0.767578 6.0957ZM10.61 17.1235V17.5468L12.1975 19.3883L12.4303 19.2613L10.61 17.1235Z" fill="#8B8E8A"/>
<path fill-rule="evenodd" clip-rule="evenodd" d="M0.74646 6.07471V6.37104L8.98024 15.9595V15.5573L0.915792 6.15937L0.74646 6.07471ZM10.61 17.4623V17.7163C10.61 17.7586 10.5889 17.801 10.5677 17.8221L12.007 19.4943L12.2399 19.3673L10.61 17.4623Z" fill="#8B8E8A"/>
<path fill-rule="evenodd" clip-rule="evenodd" d="M0.74646 6.28662V6.70995L8.98024 16.2984V15.8962L0.74646 6.28662ZM10.5889 17.78C10.5677 17.8647 10.5042 17.9494 10.4407 17.9705L10.4195 17.9917L11.8165 19.6004L12.0494 19.4734L10.5889 17.78L10.5889 17.78Z" fill="#8B8E8A"/>
<path fill-rule="evenodd" clip-rule="evenodd" d="M0.74646 6.625V7.02717L8.98024 16.6156V16.2134L0.74646 6.625ZM10.4619 17.9491C10.4619 17.9703 10.4619 17.9703 10.4407 17.9703L10.2291 18.0973L11.626 19.7059L11.8589 19.5789L10.4619 17.9491L10.4619 17.9491Z" fill="#8B8E8A"/>
<path fill-rule="evenodd" clip-rule="evenodd" d="M0.74646 6.94238V7.34455L8.98024 16.933V16.5308L0.74646 6.94238ZM10.2925 18.0548L10.0386 18.203L11.4567 19.8328L11.6895 19.6846L10.2925 18.0548Z" fill="#8B8E8A"/>
<path fill-rule="evenodd" clip-rule="evenodd" d="M0.74646 7.28125V7.68342L8.98024 17.2718V16.8697L0.74646 7.28125ZM10.1021 18.1608L9.9539 18.2455C9.91157 18.2667 9.86924 18.2667 9.8269 18.2667L11.2662 19.9388L11.499 19.7907L10.1021 18.1608V18.1608Z" fill="#8B8E8A"/>
<path fill-rule="evenodd" clip-rule="evenodd" d="M0.74646 7.59863V8.0008L8.98024 17.5892V17.187L0.74646 7.59863ZM9.4459 18.1607L11.0757 20.0445L11.3085 19.8964L9.8904 18.2665C9.86924 18.2665 9.8269 18.2877 9.80574 18.2877H9.78457C9.72107 18.2877 9.67874 18.2665 9.6364 18.2454L9.4459 18.1607L9.4459 18.1607Z" fill="#8B8E8A"/>
<path fill-rule="evenodd" clip-rule="evenodd" d="M0.74646 7.9165V8.33984L10.8852 20.1508L11.118 20.0026L9.59407 18.2246L9.1284 17.9706C9.04374 17.9283 8.98024 17.8224 8.98024 17.7166V17.5049L0.74646 7.9165Z" fill="#8B8E8A"/>
<path fill-rule="evenodd" clip-rule="evenodd" d="M0.74646 8.25488V8.65705L10.6947 20.2563L10.9275 20.1293L0.74646 8.25488Z" fill="#8B8E8A"/>
<path fill-rule="evenodd" clip-rule="evenodd" d="M0.74646 8.57227V8.97443L10.5042 20.362L10.737 20.235L0.74646 8.57227Z" fill="#8B8E8A"/>
<path fill-rule="evenodd" clip-rule="evenodd" d="M0.74646 8.89014V9.31347L10.3349 20.4682L10.5677 20.3412L0.74646 8.89014Z" fill="#8B8E8A"/>
<path fill-rule="evenodd" clip-rule="evenodd" d="M0.74646 9.22852V9.63065L10.1444 20.5738L10.3772 20.4468L0.74646 9.22852Z" fill="#8B8E8A"/>
<path fill-rule="evenodd" clip-rule="evenodd" d="M0.74646 9.5459V9.94807L9.93274 20.6583C9.99624 20.6372 10.0597 20.616 10.1232 20.5948L10.1867 20.5525L0.74646 9.5459Z" fill="#8B8E8A"/>
<path fill-rule="evenodd" clip-rule="evenodd" d="M0.74646 9.86377V10.2871L9.65757 20.6587C9.6999 20.6587 9.74224 20.6587 9.78457 20.6587C9.84807 20.6587 9.91157 20.6587 9.97507 20.6375L0.74646 9.86377Z" fill="#8B8E8A"/>
<path fill-rule="evenodd" clip-rule="evenodd" d="M0.74646 10.2021V10.6043L9.17074 20.4256L9.46707 20.5949C9.53057 20.6373 9.6364 20.6584 9.72107 20.6584L0.74646 10.2021Z" fill="#8B8E8A"/>
<path fill-rule="evenodd" clip-rule="evenodd" d="M0.74646 10.5195V10.9217L8.6204 20.108L9.3189 20.5101L0.74646 10.5195Z" fill="#8B8E8A"/>
<path fill-rule="evenodd" clip-rule="evenodd" d="M0.74646 10.8584V11.2606L8.07007 19.7907L8.76857 20.1928L0.74646 10.8584Z" fill="#8B8E8A"/>
<path fill-rule="evenodd" clip-rule="evenodd" d="M0.74646 11.1758V11.5779L7.51974 19.4731L8.19707 19.8752L0.74646 11.1758Z" fill="#8B8E8A"/>
<path fill-rule="evenodd" clip-rule="evenodd" d="M0.74646 11.4937V11.8958L6.9694 19.1559L7.64674 19.5581L0.74646 11.4937Z" fill="#8B8E8A"/>
<path fill-rule="evenodd" clip-rule="evenodd" d="M0.74646 11.832V12.2342L6.39793 18.817L7.0964 19.2191L0.74646 11.832Z" fill="#8B8E8A"/>
<path fill-rule="evenodd" clip-rule="evenodd" d="M0.74646 12.1494V12.5516L5.8476 18.4994L6.54607 18.9015L0.74646 12.1494Z" fill="#8B8E8A"/>
<path fill-rule="evenodd" clip-rule="evenodd" d="M0.74646 12.4673V12.8695L5.29727 18.1822L5.99577 18.5844L0.74646 12.4673Z" fill="#8B8E8A"/>
<path fill-rule="evenodd" clip-rule="evenodd" d="M0.74646 12.8057V13.2078L4.74693 17.8644L5.44543 18.2666L0.74646 12.8057Z" fill="#8B8E8A"/>
<path fill-rule="evenodd" clip-rule="evenodd" d="M0.74646 13.123V13.5252L4.1966 17.5468L4.8951 17.949L0.74646 13.123Z" fill="#8B8E8A"/>
<path fill-rule="evenodd" clip-rule="evenodd" d="M0.74646 13.4409V13.8643L3.64627 17.2297L4.3236 17.6319L0.74646 13.4409Z" fill="#8B8E8A"/>
<path fill-rule="evenodd" clip-rule="evenodd" d="M0.74646 13.7793V14.1815L3.07478 16.912L3.77326 17.3141L0.74646 13.7793Z" fill="#8B8E8A"/>
<path fill-rule="evenodd" clip-rule="evenodd" d="M0.74646 14.0967V14.4988L2.52445 16.5943L3.22294 16.9753L0.74646 14.0967Z" fill="#8B8E8A"/>
<path fill-rule="evenodd" clip-rule="evenodd" d="M0.74646 14.4146V14.8379L1.97412 16.2561L2.67261 16.6582L0.74646 14.4146Z" fill="#8B8E8A"/>
<path fill-rule="evenodd" clip-rule="evenodd" d="M0.74646 14.7529V15.1551L1.42379 15.9383L2.12228 16.3404L0.74646 14.7529Z" fill="#8B8E8A"/>
<path fill-rule="evenodd" clip-rule="evenodd" d="M0.74646 15.0703V15.1761C0.74646 15.3878 0.894626 15.6418 1.06396 15.7476L1.57195 16.0228L0.74646 15.0703Z" fill="#8B8E8A"/>
<path fill-rule="evenodd" clip-rule="evenodd" d="M0.873413 15.5576C0.915746 15.5999 0.936912 15.6423 0.979246 15.6635L0.873413 15.5576Z" fill="#8B8E8A"/>
</g>
<defs>
<clipPath id="clip0_1289_12312">
<rect width="50" height="21" fill="white" transform="translate(0.74646)"/>
</clipPath>
</defs>
</svg>
