<svg width="37" height="37" viewBox="0 0 37 37" fill="none" xmlns="http://www.w3.org/2000/svg">
<g clip-path="url(#clip0_1289_12252)">
<path d="M17.4871 27.7973C17.5762 27.8725 17.6721 27.9488 17.7658 28.0228C15.8904 29.2711 13.687 29.9354 11.4342 29.9318C9.93263 29.9324 8.44569 29.6371 7.05831 29.0628C5.67093 28.4886 4.4103 27.6466 3.34845 26.5849C2.2866 25.5233 1.44434 24.2629 0.8698 22.8756C0.295259 21.4883 -0.000303689 20.0014 2.34151e-07 18.4999C2.34151e-07 12.1868 5.11872 7.06692 11.433 7.06692C13.6848 7.06299 15.8872 7.72735 17.7612 8.97589C17.6687 9.05451 17.5762 9.12735 17.5068 9.20714C16.1716 10.3596 15.1003 11.7861 14.3659 13.3896C13.6314 14.9932 13.2511 16.7362 13.2506 18.4999C13.2506 22.0623 14.7942 25.4524 17.4871 27.7973ZM25.567 7.06692C23.3151 7.06243 21.1126 7.72684 19.2388 8.97589C19.3313 9.05451 19.4238 9.12735 19.4932 9.20714C20.8284 10.3596 21.8997 11.7861 22.6341 13.3896C23.3686 14.9932 23.7489 16.7362 23.7494 18.4999C23.7483 20.2623 23.3696 22.004 22.6388 23.6078C21.908 25.2115 20.8421 26.6401 19.5129 27.7973C19.4238 27.8725 19.3279 27.9488 19.2342 28.0228C21.1095 29.2714 23.3129 29.9357 25.5658 29.9318C27.0674 29.9324 28.5543 29.6371 29.9417 29.0628C31.3291 28.4886 32.5897 27.6466 33.6516 26.5849C34.7134 25.5233 35.5557 24.2629 36.1302 22.8756C36.7047 21.4883 37.0003 20.0014 37 18.4999C37 12.1879 31.8813 7.06692 25.567 7.06692V7.06692ZM18.5 9.51817C17.1383 10.5856 16.0376 11.9492 15.2815 13.5054C14.5255 15.0617 14.1338 16.7697 14.1363 18.4999C14.1335 20.2303 14.5249 21.9387 15.2811 23.4952C16.0372 25.0517 17.138 26.4154 18.5 27.4828C19.8618 26.4152 20.9625 25.0515 21.7186 23.495C22.4747 21.9385 22.8663 20.2303 22.8637 18.4999C22.8662 16.7697 22.4745 15.0617 21.7185 13.5054C20.9624 11.9492 19.8617 10.5856 18.5 9.51817V9.51817Z" fill="#8B8E8A"/>
</g>
<defs>
<clipPath id="clip0_1289_12252">
<rect width="37" height="37" fill="white"/>
</clipPath>
</defs>
</svg>
