<svg width="77" height="19" viewBox="0 0 77 19" fill="none" xmlns="http://www.w3.org/2000/svg">
<g clip-path="url(#clip0_1289_12289)">
<path d="M29.0693 3.88574H24.8777C24.5908 3.88574 24.3469 4.0815 24.3022 4.3475L22.6069 14.4446C22.5732 14.6438 22.7374 14.8234 22.9526 14.8234H24.9537C25.2405 14.8234 25.4845 14.6277 25.5292 14.3611L25.9864 11.6377C26.0306 11.3712 26.2751 11.1754 26.5613 11.1754H27.8883C30.6494 11.1754 32.2429 9.92026 32.6591 7.43298C32.8467 6.3448 32.6671 5.4898 32.1247 4.89101C31.5289 4.2335 30.4723 3.88574 29.0693 3.88574ZM29.5529 7.57347C29.3237 8.98638 28.1745 8.98638 27.0633 8.98638H26.4308L26.8745 6.34768C26.9009 6.1882 27.048 6.07074 27.2196 6.07074H27.5095C28.2664 6.07074 28.9805 6.07074 29.3494 6.47608C29.5695 6.71789 29.6369 7.07717 29.5529 7.57347Z" fill="#8B8E8A"/>
<path d="M41.599 7.52792H39.5917C39.4207 7.52792 39.273 7.64537 39.2466 7.80486L39.1578 8.33225L39.0174 8.1411C38.5829 7.54865 37.6139 7.35059 36.6467 7.35059C34.4286 7.35059 32.5341 8.92874 32.1651 11.1425C31.9733 12.2468 32.2461 13.3028 32.9129 14.0392C33.5246 14.7163 34.3998 14.9984 35.4411 14.9984C37.2283 14.9984 38.2194 13.9188 38.2194 13.9188L38.1299 14.4428C38.0962 14.6431 38.2605 14.8228 38.4744 14.8228H40.2824C40.5699 14.8228 40.8126 14.627 40.858 14.3604L41.9428 7.90677C41.9771 7.70813 41.8135 7.52792 41.599 7.52792ZM38.8011 11.1978C38.6074 12.275 37.6972 12.9982 36.5364 12.9982C35.9535 12.9982 35.4877 12.8226 35.1886 12.4898C34.892 12.1593 34.7792 11.6889 34.8736 11.165C35.0544 10.097 35.9799 9.35019 37.1229 9.35019C37.6929 9.35019 38.1563 9.5281 38.4615 9.86377C38.7673 10.2029 38.8887 10.6762 38.8011 11.1978Z" fill="#8B8E8A"/>
<path d="M52.2892 7.52783H50.2721C50.0797 7.52783 49.8989 7.61765 49.7898 7.76792L47.0078 11.6174L45.8286 7.9182C45.7544 7.68674 45.527 7.52783 45.2696 7.52783H43.2875C43.0466 7.52783 42.8793 7.74892 42.9559 7.96195L45.1777 14.0869L43.0889 16.8568C42.9246 17.075 43.0901 17.375 43.3739 17.375H45.3885C45.5797 17.375 45.7587 17.2875 45.8672 17.1401L52.576 8.04314C52.7366 7.8255 52.5717 7.52783 52.2892 7.52783Z" fill="#8B8E8A"/>
<path d="M58.9673 3.88574H54.7751C54.4889 3.88574 54.2449 4.0815 54.2002 4.3475L52.5049 14.4446C52.4712 14.6438 52.6354 14.8234 52.8493 14.8234H55.0006C55.2004 14.8234 55.3714 14.6864 55.4027 14.4998L55.8838 11.6377C55.928 11.3712 56.1725 11.1754 56.4587 11.1754H57.7851C60.5468 11.1754 62.1397 9.92026 62.5565 7.43298C62.7447 6.3448 62.5639 5.4898 62.0214 4.89101C61.4263 4.2335 60.3703 3.88574 58.9673 3.88574ZM59.4509 7.57347C59.2223 8.98638 58.0731 8.98638 56.9613 8.98638H56.3294L56.7738 6.34768C56.8001 6.1882 56.946 6.07074 57.1182 6.07074H57.4081C58.1644 6.07074 58.8791 6.07074 59.2481 6.47608C59.4681 6.71789 59.5349 7.07717 59.4509 7.57347Z" fill="#8B8E8A"/>
<path d="M71.4964 7.52792H69.4903C69.3181 7.52792 69.1716 7.64537 69.1459 7.80486L69.057 8.33225L68.9161 8.1411C68.4815 7.54865 67.5131 7.35059 66.546 7.35059C64.3278 7.35059 62.434 8.92874 62.065 11.1425C61.8738 12.2468 62.1453 13.3028 62.8121 14.0392C63.425 14.7163 64.299 14.9984 65.3404 14.9984C67.1276 14.9984 68.1187 13.9188 68.1187 13.9188L68.0292 14.4428C67.9955 14.6431 68.1597 14.8228 68.3749 14.8228H70.1823C70.4685 14.8228 70.7125 14.627 70.7572 14.3604L71.8427 7.90677C71.8758 7.70813 71.7115 7.52792 71.4964 7.52792ZM68.6985 11.1978C68.506 12.275 67.5946 12.9982 66.4338 12.9982C65.8521 12.9982 65.3851 12.8226 65.086 12.4898C64.7894 12.1593 64.6778 11.6889 64.771 11.165C64.953 10.097 65.8773 9.35019 67.0203 9.35019C67.5903 9.35019 68.0537 9.5281 68.3589 9.86377C68.666 10.2029 68.7873 10.6762 68.6985 11.1978Z" fill="#8B8E8A"/>
<path d="M73.8628 4.16277L72.1423 14.4446C72.1086 14.6439 72.2729 14.8235 72.4868 14.8235H74.2164C74.5039 14.8235 74.7478 14.6277 74.7919 14.3612L76.4885 4.26468C76.5222 4.06547 76.3579 3.88525 76.144 3.88525H74.2072C74.0362 3.88583 73.8891 4.00328 73.8628 4.16277Z" fill="#8B8E8A"/>
<path fill-rule="evenodd" clip-rule="evenodd" d="M14.8036 4.3807C14.827 4.39173 14.8503 4.40294 14.8733 4.41433C15.0988 3.06303 14.8714 2.14297 14.0936 1.30985C13.2362 0.392667 11.6886 0 9.70832 0H3.95929C3.55478 0 3.20971 0.276364 3.1472 0.652333L0.752582 14.911C0.705389 15.1931 0.937066 15.4476 1.23984 15.4476H4.78916L4.54463 16.906C4.50357 17.1524 4.70583 17.3746 4.9706 17.3746H7.96218C8.31644 17.3746 8.61738 17.1328 8.67315 16.8046L8.70257 16.6618L9.26583 13.304L9.30199 13.1198C9.35715 12.7905 9.6587 12.5486 10.013 12.5486H10.4604C13.3588 12.5486 15.6278 11.4432 16.2909 8.24427C16.568 6.90794 16.4245 5.79212 15.6915 5.00736C15.4696 4.77072 15.1944 4.57439 14.8727 4.41433C14.8684 4.4399 14.864 4.4656 14.8594 4.49146C14.8422 4.45381 14.8235 4.41689 14.8036 4.3807ZM5.53539 11L4.78916 15.4476L5.53571 11H5.53539Z" fill="#8B8E8A"/>
</g>
<defs>
<clipPath id="clip0_1289_12289">
<rect width="76" height="19" fill="white" transform="translate(0.74646)"/>
</clipPath>
</defs>
</svg>
