<svg width="37" height="37" viewBox="0 0 37 37" fill="none" xmlns="http://www.w3.org/2000/svg">
<path d="M26.8944 13.2934C26.0349 12.9805 25.1265 12.8235 24.2119 12.8298C21.2519 12.8298 19.1625 14.3225 19.1475 16.4604C19.129 18.0329 20.6333 18.9174 21.7699 19.4447C22.9365 19.9846 23.3273 20.3234 23.3239 20.8091C23.3158 21.5444 22.3908 21.8774 21.5328 21.8774C20.3523 21.8774 19.7048 21.7121 18.7104 21.2993L18.3416 21.1282L17.9242 23.5921C18.6422 23.8928 19.9372 24.1506 21.2773 24.1703C24.4235 24.1703 26.4804 22.6891 26.5047 20.4101C26.529 19.1568 25.7185 18.2052 24.0061 17.4224C22.9666 16.9136 22.3191 16.5726 22.3191 16.0569C22.3191 15.6001 22.8729 15.1134 24.0292 15.1134C24.7981 15.0952 25.5623 15.2386 26.2723 15.5342L26.5498 15.6591L26.9672 13.2784L26.8944 13.2934ZM34.5765 13.0321H32.264C31.5437 13.0321 31.006 13.2275 30.6903 13.9432L26.2422 24.0165H29.3884L30.0174 22.3665L33.8562 22.37C33.9498 22.755 34.2262 24.0165 34.2262 24.0165H37L34.5765 13.0321ZM14.8925 12.9396H17.8883L16.0152 23.9298H13.0182L14.8925 12.9361V12.9396ZM7.27859 18.9961L7.58963 20.5223L10.5207 13.031H13.6946L8.97597 24.0003H5.809L3.219 14.7098C3.17708 14.5568 3.07766 14.4259 2.9415 14.3445C2.01003 13.8604 1.02193 13.4941 0 13.2541L0.0381562 13.0229H4.8655C5.51878 13.0471 6.04603 13.2541 6.22641 13.9536L7.27744 18.9995L7.27859 18.9961ZM30.8777 20.1176L32.0721 17.0431C32.057 17.0744 32.3183 16.4084 32.4698 15.9944L32.6745 16.9426L33.3671 20.1141H30.8777V20.1176Z" fill="#8B8E8A"/>
</svg>
