<svg width="32" height="32" viewBox="0 0 32 32" fill="none" xmlns="http://www.w3.org/2000/svg">
<path d="M16 4.04199C9.36937 4.04199 4 9.45163 4 16.132C4 21.2512 7.15315 25.6261 11.6216 27.387C11.5135 26.4248 11.4234 24.9726 11.6577 23.9197C11.8739 22.9757 13.0631 17.911 13.0631 17.911C13.0631 17.911 12.7027 17.1849 12.7027 16.1138C12.7027 14.4256 13.6757 13.173 14.8649 13.173C15.8919 13.173 16.3784 13.9536 16.3784 14.8794C16.3784 15.9142 15.7297 17.4753 15.3874 18.9094C15.0991 20.1075 15.982 21.0878 17.1712 21.0878C19.2973 21.0878 20.9369 18.8187 20.9369 15.5511C20.9369 12.6647 18.8649 10.6316 15.9279 10.6316C12.5225 10.6316 10.5045 13.2093 10.5045 15.8778C10.5045 16.9126 10.9009 18.0381 11.4054 18.6371C11.4955 18.7642 11.5135 18.855 11.4955 18.982C11.4054 19.3633 11.2072 20.1801 11.1712 20.3435C11.1171 20.5614 10.991 20.6158 10.7748 20.5069C9.27928 19.7989 8.34234 17.6024 8.34234 15.8234C8.34234 12.0112 11.0991 8.50767 16.2703 8.50767C20.4324 8.50767 23.6577 11.5029 23.6577 15.4785C23.6577 19.6356 21.045 22.9939 17.4414 22.9939C16.2342 22.9939 15.0811 22.3585 14.6847 21.6142C14.6847 21.6142 14.0901 23.9197 13.9459 24.4824C13.6757 25.5353 12.9369 26.8424 12.4505 27.6593C13.5676 28.0042 14.7568 28.2038 16 28.2038C22.6306 28.2038 28 22.7942 28 16.1138C28 9.45163 22.6306 4.04199 16 4.04199Z" fill="#8B8E8A"/>
</svg>
